<svg xmlns="http://www.w3.org/2000/svg"
 viewBox="0 0 1920 755" fill="none">
  <path d="M1309.76 691.676C1453.03 674.749 1540.39 725.597 1606.67 733.147C1638.78 736.806 1714.97 737.925 1766.33 742.971C1852.84 751.471 1856.7 726.265 1928 755V0L5.61591e-06 0L0 666.173C90.375 680.207 137.599 672.467 191.796 666.173C217.221 657.71 280.192 648.69 336.396 655.46C406.651 663.924 563.044 660.669 608.208 655.46C653.372 650.252 754.556 658.443 896.822 685.462C948.549 695.286 1025.42 695.541 1104.68 695.286C1183.48 695.033 1279.64 695.234 1309.76 691.676Z" fill="#FCF5F0"/>
</svg>