<svg xmlns="http://www.w3.org/2000/svg" width="8" height="9" viewBox="0 0 8 9" fill="none">
  <g clip-path="url(#clip0_2001_10465)">
    <path d="M1.06433 5.95993C1.04224 5.95303 1.01979 5.9465 0.99805 5.93887C0.976659 5.93124 0.952812 5.91417 0.936681 5.94105C0.930369 5.95194 0.940539 5.97337 0.942993 5.98971C0.9465 6.01296 0.959826 6.04201 0.95141 6.05872C0.914237 6.13099 0.934577 6.19818 0.953163 6.269C0.963333 6.30858 0.959475 6.35289 0.958774 6.39502C0.957371 6.48254 0.956319 6.48181 0.863038 6.50542C0.846907 6.50942 0.832529 6.52031 0.817099 6.52794C0.811839 6.53048 0.805877 6.53702 0.801669 6.53556C0.759237 6.52358 0.732935 6.49126 0.716103 6.4524C0.70453 6.42552 0.693659 6.38303 0.722766 6.37068C0.785187 6.34381 0.748015 6.30531 0.745209 6.26863C0.743105 6.24248 0.752924 6.22178 0.784486 6.23268C0.799214 6.23776 0.810085 6.23449 0.810787 6.21851C0.812891 6.17675 0.814995 6.13462 0.811488 6.09286C0.810085 6.0776 0.795006 6.06162 0.782732 6.05C0.76625 6.03475 0.750119 6.04819 0.737494 6.05908C0.720311 6.07397 0.70453 6.06562 0.6891 6.05835C0.656838 6.04346 0.644914 6.01586 0.65789 5.98971C0.676826 5.95231 0.69436 5.91381 0.716804 5.87895C0.724519 5.86696 0.751171 5.8528 0.757834 5.85716C0.806578 5.88984 0.813943 5.84953 0.830425 5.81902C0.862337 5.76019 0.81745 5.70244 0.829373 5.64397C0.830074 5.64143 0.810436 5.63126 0.799915 5.63017C0.789395 5.62908 0.772212 5.63199 0.768705 5.63925C0.758184 5.65995 0.754678 5.68392 0.745209 5.70535C0.741352 5.71407 0.729779 5.72423 0.721714 5.72423C0.711544 5.72423 0.697867 5.71661 0.692256 5.70789C0.646317 5.63417 0.625978 5.55463 0.649824 5.46783C0.654734 5.4504 0.665955 5.43478 0.66841 5.41735C0.672618 5.38757 0.678931 5.35598 0.672969 5.32765C0.650876 5.22269 0.623874 5.11846 0.598625 5.01387C0.590208 4.97936 0.558998 4.97283 0.533047 4.96048L0.531294 4.94559C0.568817 4.92525 0.59617 4.89256 0.607392 4.85262C0.640356 4.73422 0.697517 4.62345 0.710492 4.49888C0.7147 4.46075 0.719609 4.43242 0.768705 4.44622C0.777823 4.44877 0.797461 4.42734 0.805176 4.41281C0.83323 4.36015 0.851816 4.30422 0.847959 4.24248C0.924057 4.23449 0.924407 4.16622 0.942292 4.11319C0.944045 4.10775 0.928966 4.0954 0.92055 4.08741C0.908627 4.07615 0.89986 4.07869 0.893197 4.09213C0.869 4.14079 0.849011 4.19055 0.852167 4.24684C0.819904 4.25992 0.787291 4.28425 0.755028 4.28425C0.680333 4.28425 0.636498 4.32529 0.603534 4.38557C0.596871 4.39792 0.602833 4.42262 0.577934 4.411C0.57057 4.40736 0.571622 4.38848 0.564959 4.37976C0.542516 4.34962 0.489563 4.34708 0.478341 4.37613C0.442221 4.46983 0.38506 4.55663 0.387515 4.66377C0.387865 4.68083 0.374189 4.69972 0.378397 4.71461C0.414166 4.84063 0.382254 4.96847 0.391723 5.09485C0.39558 5.1457 0.376994 5.19 0.356655 5.23395C0.348589 5.25102 0.331055 5.267 0.315976 5.25647C0.281258 5.23213 0.243385 5.26337 0.218486 5.25283C0.156416 5.22632 0.130115 5.24049 0.0939944 5.29896C0.0687454 5.34 0.0487566 5.37994 0.0336773 5.42462C0.0319239 5.42934 0.0252609 5.43188 0.0207021 5.43551C0.0171953 5.43079 0.0112337 5.42607 0.0105323 5.42098C-0.00279356 5.33055 -0.00594969 5.23758 0.0157925 5.15115C0.0291184 5.09848 -0.00875514 5.05309 0.0133378 5.01096C0.0357814 4.96774 0.0231568 4.93288 0.0126364 4.89365C-0.0140154 4.79451 0.0392882 4.7048 0.0463018 4.60929C0.0480552 4.58496 0.0704988 4.59367 0.0859288 4.59985C0.115386 4.61147 0.144843 4.60711 0.170092 4.5904C0.197095 4.57261 0.217083 4.55046 0.166585 4.53339C0.152558 4.52866 0.151506 4.50905 0.160624 4.5076C0.218136 4.50034 0.207615 4.44986 0.221642 4.41354C0.233215 4.38376 0.241982 4.35688 0.214979 4.33255C0.193939 4.31367 0.170794 4.32311 0.149753 4.33328C0.136076 4.33981 0.125205 4.34127 0.121348 4.32819C0.118191 4.31802 0.117139 4.30313 0.122049 4.29478C0.140986 4.26246 0.165183 4.23704 0.207615 4.25302C0.216382 4.25628 0.226903 4.25519 0.236371 4.25592C0.233916 4.24539 0.234618 4.23195 0.228656 4.22432C0.192185 4.17675 0.191834 4.17748 0.223396 4.13208C0.233215 4.11791 0.246891 4.10302 0.248995 4.08741C0.26653 3.94904 0.334912 3.84154 0.430298 3.74711C0.463612 3.71407 0.485705 3.66939 0.515864 3.63308C0.532346 3.61347 0.522527 3.56516 0.566362 3.57533C0.589507 3.58078 0.604937 3.60075 0.611249 3.62654C0.615808 3.64506 0.623172 3.64688 0.631589 3.63308C0.641057 3.61782 0.652279 3.60366 0.660344 3.58768C0.678931 3.54918 0.69927 3.52267 0.744508 3.50488C0.837438 3.46856 0.90547 3.3912 0.976308 3.32111C0.983322 3.31421 0.990335 3.2975 0.986829 3.2906C0.950358 3.21797 0.955618 3.1388 0.946851 3.06144C0.946851 3.05926 0.927563 3.05527 0.9209 3.0589C0.907224 3.06616 0.897054 3.06834 0.892495 3.05563C0.885832 3.0382 0.885131 3.01786 0.903717 3.00951C0.924057 3.00043 0.951059 3.00224 0.949656 2.96774C0.948254 2.93215 0.9209 2.91545 0.898106 2.89983C0.878117 2.88639 0.852868 2.89583 0.83323 2.91109C0.779225 2.95394 0.75608 3.01495 0.743456 3.08142C0.742404 3.0865 0.733637 3.09485 0.732234 3.09413C0.724168 3.08977 0.713297 3.08468 0.710492 3.07669C0.70453 3.05999 0.705933 3.04001 0.698569 3.0244C0.681035 2.98626 0.655786 2.97283 0.619665 3.00479C0.615457 3.00842 0.59617 3.00079 0.590208 2.99316C0.585649 2.98699 0.589507 2.97246 0.591611 2.96229C0.592663 2.95685 0.597573 2.95031 0.602131 2.94813C0.640356 2.93179 0.681736 2.9169 0.618613 2.87586C0.632641 2.83046 0.64772 2.78507 0.659994 2.73931C0.661396 2.73349 0.650525 2.72115 0.64281 2.71643C0.628082 2.70771 0.605638 2.70371 0.624224 2.67974C0.642109 2.65723 0.640706 2.62055 0.674021 2.60965C0.711193 2.5973 0.731533 2.56571 0.737494 2.52975C0.743807 2.49235 0.759587 2.46257 0.778875 2.43206C0.848309 2.32057 0.906873 2.2029 0.961229 2.08305C0.977009 2.04819 0.99805 2.02022 1.03031 2.00388C1.15831 1.93996 1.22108 1.81249 1.30034 1.70244C1.32068 1.67412 1.33611 1.64034 1.36416 1.61964C1.42518 1.57424 1.48795 1.53139 1.55107 1.48926C1.56475 1.48018 1.59105 1.47038 1.59947 1.47691C1.6647 1.52848 1.70993 1.48708 1.74781 1.44096C1.77656 1.40609 1.81338 1.38721 1.85021 1.37522C1.9242 1.35089 1.96944 1.28588 2.03326 1.24848C2.04168 1.24375 2.04413 1.22777 2.04904 1.21688L2.04448 1.22124C2.12304 1.23104 2.19317 1.19327 2.25735 1.16131C2.3615 1.10974 2.47722 1.09231 2.57682 1.03093C2.67711 0.969195 2.79599 0.956121 2.89804 0.899829C2.931 0.88167 2.98501 0.911087 2.99939 0.852253L2.99483 0.856974C3.03551 0.859153 3.07654 0.867506 3.11616 0.8508C3.13615 0.842447 3.13826 0.825378 3.13335 0.807582C3.12949 0.793782 3.11862 0.793419 3.10459 0.798503C3.09618 0.801408 3.07934 0.799956 3.07689 0.794508C3.06812 0.778165 3.06952 0.759643 3.08776 0.748748C3.10284 0.739669 3.11862 0.731679 3.13475 0.724416C3.19296 0.69863 3.24592 0.733495 3.23294 0.797414C3.22523 0.835184 3.21926 0.854795 3.261 0.847168C3.30623 0.838815 3.35007 0.82102 3.39425 0.80613C3.40583 0.802135 3.40302 0.792692 3.39496 0.778529C3.38198 0.755649 3.38023 0.728774 3.40898 0.719694C3.46439 0.702262 3.5212 0.688461 3.57801 0.676113C3.61834 0.667397 3.64499 0.69863 3.63307 0.741848C3.62535 0.770176 3.61062 0.796324 3.6001 0.824288C3.59905 0.827557 3.60501 0.835184 3.60922 0.838089C3.61203 0.839905 3.61834 0.838452 3.6222 0.836636C3.62711 0.834094 3.63272 0.830099 3.63552 0.825378C3.65621 0.786155 3.76282 0.717878 3.81647 0.709889C3.82209 0.709162 3.82805 0.708073 3.83366 0.705894C3.86662 0.693546 3.90344 0.686645 3.9308 0.666308C3.96271 0.642338 3.94728 0.599484 3.95079 0.563893C3.95149 0.556629 3.96201 0.549002 3.96937 0.543918C3.97148 0.542465 3.97954 0.548639 3.98375 0.552634C3.99181 0.56135 4.00128 0.570067 4.00584 0.580599C4.02197 0.617642 4.04161 0.643428 4.0851 0.618732C4.10894 0.605294 4.12963 0.621274 4.15137 0.628538C4.17908 0.637617 4.18504 0.655049 4.17592 0.682651C4.17452 0.686645 4.18785 0.701899 4.19486 0.701899C4.20433 0.701899 4.22186 0.694272 4.22256 0.688098C4.22958 0.625269 4.27587 0.622 4.31164 0.639796C4.39054 0.679019 4.47961 0.679382 4.55816 0.717515C4.63181 0.75347 4.70791 0.784339 4.7826 0.817388C4.79312 0.822109 4.80469 0.825015 4.81486 0.830826C4.858 0.855885 4.89271 0.913266 4.95338 0.867506C5.02527 0.89656 5.09436 0.935783 5.13995 0.998249C5.18729 1.06326 5.25637 1.09812 5.30932 1.15478C5.36122 1.21034 5.42294 1.25683 5.48607 1.30186C5.6309 1.405 5.7617 1.52957 5.87602 1.66685C6.03593 1.8597 6.21618 2.02821 6.41186 2.1782C6.54477 2.28025 6.65348 2.40627 6.77096 2.52394C6.78639 2.53956 6.80182 2.56462 6.80217 2.58532C6.80358 2.6703 6.84846 2.73422 6.89195 2.79814C6.96068 2.8991 6.9954 3.00951 7.0196 3.13117C7.05116 3.28988 7.05642 3.45149 7.08587 3.60983C7.08693 3.61564 7.08517 3.62218 7.08658 3.62799C7.12515 3.77254 7.11814 3.91308 7.05817 4.05145C7.04449 4.08305 7.0452 4.12264 7.04449 4.15859C7.04344 4.21888 7.04064 4.28062 7.0494 4.33981C7.05887 4.40446 7.00487 4.45058 7.01398 4.5145C7.0245 4.58823 7.00417 4.65469 6.96699 4.72187C6.93683 4.77635 6.93263 4.84572 6.91755 4.90891C6.90352 4.96847 6.88283 5.02294 6.83864 5.06798C6.81445 5.09267 6.80042 5.1279 6.78289 5.1595C6.76535 5.19073 6.76921 5.21615 6.80533 5.23032C6.81971 5.23613 6.82497 5.24775 6.8162 5.25756C6.78464 5.29278 6.75203 5.32692 6.71871 5.35997C6.71661 5.36215 6.70048 5.35307 6.69486 5.34617C6.68469 5.33346 6.68329 5.30949 6.65804 5.32256C6.63279 5.33564 6.59878 5.33854 6.59387 5.37559C6.58826 5.41735 6.5858 5.45984 6.5823 5.50197C6.58019 5.52848 6.56687 5.54483 6.54477 5.55826C6.52163 5.57206 6.5346 5.58586 6.55144 5.59059C6.57809 5.59821 6.5844 5.61746 6.59141 5.64216C6.60544 5.6901 6.62333 5.69336 6.65313 5.65523C6.68224 5.61819 6.70749 5.57787 6.7366 5.54047C6.74256 5.53284 6.75764 5.52885 6.76781 5.52994C6.78429 5.53139 6.78604 5.54083 6.77692 5.55427C6.74957 5.59349 6.71766 5.63017 6.75448 5.68392C6.77622 5.71588 6.7657 5.75474 6.75518 5.7896C6.72257 5.89892 6.6882 6.00787 6.65489 6.11719C6.64437 6.15169 6.6335 6.18583 6.62578 6.22106C6.61175 6.28752 6.5858 6.34708 6.54302 6.39901C6.52023 6.42661 6.49918 6.45567 6.47849 6.48508C6.41783 6.57152 6.41502 6.69028 6.32419 6.76182C6.23933 6.82865 6.19585 6.93215 6.1457 7.02512C6.11694 7.07851 6.05978 7.08904 6.03629 7.13734C6.01279 7.18565 5.99771 7.23831 5.97527 7.28661C5.9686 7.30077 5.94862 7.30913 5.93389 7.31857C5.89777 7.34145 5.86585 7.37123 5.85183 7.41081C5.81956 7.50306 5.74206 7.54809 5.67614 7.60656C5.65124 7.62872 5.62634 7.63417 5.59653 7.61637C5.57689 7.60439 5.56602 7.62254 5.55375 7.63453C5.48852 7.697 5.41944 7.75038 5.3237 7.75038C5.30897 7.75038 5.28688 7.76128 5.28022 7.77399C5.24971 7.83137 5.20201 7.85716 5.14345 7.87386C5.11645 7.88149 5.09015 7.9011 5.06946 7.92144C5.02176 7.96865 4.97197 8.0017 4.90218 8.00933C4.86606 8.01332 4.83625 8.06017 4.79873 8.07215C4.68686 8.10775 4.58552 8.16767 4.48207 8.22033C4.41579 8.2541 4.34635 8.2127 4.28463 8.25156C4.27517 8.25774 4.25132 8.24466 4.23694 8.23595C4.20783 8.21779 4.18364 8.21633 4.16225 8.24684C4.14156 8.2759 4.12402 8.30894 4.09842 8.33219C4.04477 8.38122 3.97814 8.39974 3.90695 8.39974C3.90204 8.39974 3.89117 8.38049 3.89327 8.37468C3.90625 8.34199 3.91466 8.30241 3.95605 8.29478C4.03565 8.28025 4.08404 8.21561 4.14436 8.17021C4.14717 8.16803 4.14857 8.15714 4.14752 8.15677C4.1377 8.15133 4.12437 8.14079 4.11736 8.14406C4.04757 8.17711 3.97183 8.17675 3.89888 8.19237C3.83822 8.20544 3.77334 8.22396 3.7274 8.27698C3.71443 8.29187 3.69514 8.29115 3.68076 8.27916C3.66463 8.26536 3.67164 8.24684 3.67831 8.23014C3.68041 8.22469 3.68322 8.21888 3.68532 8.21343C3.69584 8.18946 3.69689 8.16404 3.67094 8.15351C3.65867 8.14842 3.63587 8.15714 3.6243 8.16731C3.59835 8.19091 3.57836 8.22178 3.55171 8.24503C3.53102 8.26318 3.50682 8.25302 3.48964 8.23449C3.47877 8.22287 3.45738 8.2029 3.47631 8.19128C3.52436 8.1615 3.48789 8.10121 3.52681 8.06743C3.55592 8.04237 3.53137 7.98645 3.5724 7.96175C3.58713 7.95303 3.58713 7.94105 3.57345 7.9356C3.51173 7.90982 3.56153 7.86297 3.55346 7.82701C3.55136 7.81721 3.54505 7.80813 3.54084 7.79868C3.53558 7.80159 3.52927 7.80304 3.52541 7.8074C3.50893 7.82447 3.48508 7.83936 3.47807 7.86042C3.45177 7.94105 3.41775 8.01695 3.37076 8.08668C3.36971 8.08813 3.38198 8.10266 3.39005 8.10629C3.42617 8.123 3.42722 8.14987 3.40898 8.17929C3.35252 8.26972 3.28098 8.33437 3.16806 8.32819C3.13054 8.32601 3.10179 8.34417 3.07759 8.37432C3.059 8.39756 3.03656 8.41753 3.01447 8.43751C2.99202 8.45748 2.96642 8.47128 2.93556 8.47274C2.84824 8.47709 2.76022 8.47382 2.67536 8.50106C2.6715 8.50215 2.66273 8.49743 2.66133 8.49307C2.65782 8.48254 2.65151 8.46801 2.65572 8.46075C2.69079 8.39611 2.74129 8.34708 2.80371 8.31076C2.81002 8.30713 2.81282 8.28824 2.81002 8.2788C2.80721 8.27008 2.79494 8.25883 2.78652 8.25846C2.74584 8.25737 2.6957 8.25047 2.67922 8.29878C2.65011 8.38448 2.57682 8.40627 2.51089 8.44005C2.48494 8.45312 2.45583 8.4593 2.42778 8.46765C2.42392 8.46874 2.41691 8.46329 2.4141 8.45893C2.41165 8.4553 2.41094 8.44768 2.41305 8.44405C2.42988 8.41245 2.44987 8.38194 2.46425 8.34926C2.47126 8.33328 2.46004 8.30168 2.44777 8.30531C2.38955 8.32274 2.33555 8.28824 2.27839 8.29805C2.24542 8.30386 2.22614 8.31584 2.22508 8.35398C2.22438 8.38049 2.20825 8.39647 2.1802 8.39792C2.12198 8.40155 2.06342 8.41354 2.00766 8.38412C1.99784 8.37904 1.98241 8.37177 1.9747 8.37613C1.89194 8.42189 1.8204 8.35035 1.74114 8.3518C1.70818 8.35252 1.67557 8.34127 1.64015 8.35361C1.62016 8.36051 1.59351 8.35761 1.57282 8.34962C1.55353 8.34236 1.52442 8.32783 1.5367 8.29914C1.5637 8.23704 1.53214 8.2029 1.48339 8.18873C1.43956 8.17602 1.41291 8.15133 1.39011 8.11465C1.35539 8.05908 1.28701 8.03221 1.26913 7.96211C1.29683 7.9603 1.32418 7.95993 1.35154 7.95667C1.36732 7.95485 1.37118 7.94359 1.36101 7.93161C1.34663 7.91454 1.33155 7.89747 1.31542 7.88221C1.3077 7.87495 1.29613 7.87168 1.28631 7.8666C1.28245 7.87677 1.27579 7.88657 1.27474 7.8971C1.27263 7.91998 1.27333 7.94286 1.27263 7.96611C1.26176 7.96974 1.25089 7.97264 1.24002 7.977C1.21547 7.98681 1.20635 8.03293 1.17059 8.01332C1.14288 7.99807 1.13622 7.9672 1.13236 7.93633C1.1278 7.90001 1.10851 7.91091 1.08397 7.91672C1.04715 7.92543 1.01804 7.90219 1.02926 7.87422C1.04189 7.84227 1.04925 7.82047 1.01629 7.80268C0.938785 7.76128 0.863389 7.71334 0.782031 7.68283C0.717856 7.65886 0.690503 7.61383 0.67367 7.55499C0.664202 7.52086 0.674722 7.48163 0.651577 7.4504C0.634745 7.42752 0.625276 7.40173 0.596871 7.3843C0.474133 7.30913 0.440117 7.25792 0.421531 7.12609C0.41627 7.08795 0.407153 7.05781 0.378397 7.03202C0.317729 6.97755 0.30791 6.91 0.338068 6.83518C0.353498 6.79705 0.345783 6.764 0.319132 6.73567C0.297389 6.71243 0.288973 6.68556 0.28757 6.65432C0.286168 6.62345 0.284765 6.58931 0.311417 6.57188C0.355603 6.54247 0.372085 6.48145 0.428193 6.46729C0.424687 6.49707 0.425739 6.5283 0.41627 6.5559C0.405399 6.58822 0.401542 6.60929 0.438013 6.62563C0.451338 6.63144 0.458352 6.65323 0.46782 6.66776C0.492719 6.70698 0.49833 6.7433 0.459404 6.77853C0.44713 6.78942 0.439415 6.80758 0.433454 6.82356C0.425388 6.84572 0.44187 6.89402 0.459755 6.9031C0.481848 6.91436 0.503941 6.9129 0.524981 6.89801C0.539009 6.88784 0.553737 6.87767 0.568817 6.86968C0.593715 6.85661 0.604235 6.83555 0.588104 6.81267C0.553036 6.76364 0.537255 6.70953 0.520773 6.65142C0.502538 6.58714 0.494472 6.50869 0.424336 6.47128C0.414283 6.42649 0.379098 6.40107 0.318781 6.39502L0.322638 6.39974C0.319482 6.35979 0.332107 6.33291 0.369279 6.31258C0.391021 6.30059 0.388216 6.27117 0.363668 6.25447C0.349992 6.24503 0.331406 6.24212 0.343329 6.21561C0.365071 6.16876 0.356655 6.12264 0.338419 6.07542C0.310715 6.00279 0.288973 5.92943 0.283362 5.8488C0.278453 5.77798 0.292129 5.71951 0.326145 5.66068C0.336315 5.64325 0.360512 5.61819 0.330704 5.59967C0.320534 5.59349 0.29774 5.6033 0.283362 5.61092C0.268634 5.61891 0.259516 5.62037 0.258464 5.60548C0.255308 5.56371 0.253204 5.52158 0.252152 5.47945C0.2511 5.44749 0.262672 5.42171 0.286518 5.39992C0.317028 5.37232 0.342627 5.33745 0.376293 5.31494C0.405049 5.29569 0.409607 5.27571 0.408555 5.24375C0.408205 5.23177 0.430298 5.21143 0.444325 5.20925C0.456949 5.20744 0.480094 5.22196 0.485355 5.23467C0.500784 5.27317 0.509551 5.31457 0.521124 5.35489C0.528839 5.3814 0.522527 5.39956 0.497278 5.41372C0.466768 5.43043 0.436961 5.45004 0.409257 5.47146C0.389619 5.48672 0.382605 5.56008 0.403646 5.56988C0.450988 5.59168 0.436961 5.63162 0.448884 5.66649C0.463262 5.70934 0.444325 5.73477 0.430298 5.76673C0.42644 5.77508 0.433454 5.78924 0.437311 5.79977C0.438714 5.80377 0.445377 5.80813 0.449936 5.80849C0.455196 5.80922 0.463963 5.80849 0.466418 5.8045C0.487809 5.7729 0.521475 5.6516 0.506395 5.62255C0.466768 5.54592 0.511656 5.51178 0.563907 5.47764C0.583545 5.46493 0.598274 5.46929 0.598274 5.48999C0.598274 5.68392 0.597923 5.87786 0.597573 6.07179C0.597573 6.08378 0.595819 6.09612 0.59652 6.10811C0.598274 6.15895 0.523929 6.18147 0.546724 6.23413C0.562504 6.27081 0.600378 6.2966 0.623172 6.3311C0.640005 6.35688 0.638252 6.38921 0.626679 6.41862C0.615457 6.44695 0.607041 6.47491 0.611249 6.50651C0.615107 6.53774 0.644914 6.56062 0.683489 6.55917C0.741352 6.55663 0.779576 6.58096 0.775719 6.63544C0.763445 6.7985 0.865844 6.91799 0.915991 7.05672C0.920901 7.07016 0.942292 7.07742 0.955969 7.08759C0.958073 7.13625 1.00086 7.15587 1.02716 7.18456C1.05767 7.21797 1.051 7.26337 1.07555 7.2946C1.08362 7.30477 1.10746 7.30695 1.12254 7.30404C1.13762 7.3015 1.15831 7.29169 1.16357 7.27898C1.18286 7.23322 1.16287 7.18419 1.12289 7.15732C1.08993 7.1348 1.04539 7.13153 1.0233 7.08941C1.00051 7.04582 0.976308 7.08941 0.952462 7.09158C0.978412 7.00624 1.02786 6.93288 1.06643 6.85407C1.07204 6.84245 1.08432 6.84281 1.09519 6.85407C1.11553 6.8755 1.14428 6.89402 1.15375 6.92017C1.17059 6.96629 1.19513 6.9652 1.23231 6.95358C1.25124 6.9474 1.26281 6.96665 1.27158 6.983C1.29332 7.02549 1.32418 7.06616 1.27579 7.11374C1.27123 7.11846 1.29157 7.15587 1.30525 7.17403C1.34382 7.22487 1.40624 7.24593 1.44096 7.30767C1.46866 7.35634 1.52898 7.38503 1.57282 7.42461C1.62682 7.47328 1.68854 7.50524 1.75587 7.52812C1.86669 7.56589 1.9775 7.6033 2.09603 7.6062C2.11111 7.60656 2.13145 7.61601 2.13952 7.62799C2.15495 7.65196 2.1332 7.6723 2.12409 7.69373C2.12163 7.69917 2.12058 7.70535 2.11883 7.71116C2.07324 7.71261 2.02765 7.71298 1.98206 7.71588C1.97505 7.71624 1.96874 7.72641 1.96242 7.73222C1.96733 7.73549 1.97154 7.74094 1.9768 7.74167C2.028 7.75183 2.0778 7.75619 2.11497 7.7068C2.21772 7.80486 2.33976 7.78779 2.46179 7.76854C2.49055 7.76418 2.5179 7.7522 2.54666 7.74784C2.5705 7.74421 2.59225 7.7522 2.60592 7.77653C2.61364 7.79069 2.61785 7.80994 2.64345 7.80159C2.73182 7.77254 2.8251 7.75547 2.90786 7.71479C2.97344 7.68247 3.04147 7.67375 3.1088 7.65523C3.11476 7.65341 3.12563 7.66467 3.13194 7.67157C3.13475 7.67484 3.1344 7.68537 3.13159 7.68901C3.10424 7.7206 3.07584 7.75111 3.04848 7.7827C3.04498 7.7867 3.04182 7.79687 3.04392 7.79941C3.05024 7.8074 3.05865 7.81684 3.06777 7.81866C3.13931 7.83537 3.20629 7.81067 3.27467 7.79469C3.28379 7.79251 3.29922 7.79977 3.30448 7.80776C3.30939 7.81539 3.30904 7.83319 3.30343 7.84045C3.28239 7.86914 3.25047 7.89093 3.24592 7.92943C3.24311 7.95231 3.24592 7.97664 3.24977 7.99988C3.25153 8.0086 3.26415 8.01949 3.27327 8.02131C3.28239 8.02313 3.29817 8.01731 3.30238 8.00969C3.3136 7.98899 3.31886 7.96502 3.32938 7.94359C3.34761 7.90546 3.40302 7.87713 3.35498 7.82193C3.35007 7.81648 3.3655 7.79106 3.37286 7.7758C3.39741 7.72496 3.39741 7.72496 3.35743 7.64579C3.34411 7.61928 3.35708 7.5786 3.38268 7.56916C3.45387 7.54337 3.52506 7.51686 3.59695 7.49398C3.62921 7.48381 3.64604 7.52013 3.67199 7.53211C3.68848 7.53974 3.68707 7.55318 3.67024 7.55681C3.62395 7.56698 3.57906 7.58187 3.54294 7.61383C3.51664 7.63707 3.49315 7.66467 3.47316 7.69409C3.46264 7.70934 3.53453 7.71588 3.58467 7.69627C3.61729 7.68356 3.64955 7.6683 3.68041 7.6516C3.72565 7.62727 3.75405 7.63635 3.7786 7.68574C3.79403 7.71697 3.8277 7.71661 3.85365 7.69954C3.88451 7.6792 3.9052 7.65341 3.91431 7.61492C3.92764 7.55863 3.96516 7.52122 4.01461 7.49616C4.04687 7.47982 4.08229 7.4987 4.09211 7.53829C4.09632 7.55536 4.09877 7.57279 4.10228 7.58986C4.10964 7.5757 4.11631 7.56044 4.12472 7.547C4.15734 7.4958 4.19135 7.45076 4.26079 7.44713C4.30603 7.44495 4.35091 7.42534 4.39545 7.41227C4.41158 7.40755 4.43227 7.405 4.44174 7.39338C4.4996 7.32184 4.58341 7.28879 4.65495 7.23758C4.69458 7.20962 4.7293 7.17984 4.74964 7.1348C4.75174 7.12972 4.75209 7.12245 4.75034 7.11701C4.74473 7.10139 4.73491 7.09957 4.72193 7.10974C4.71737 7.11337 4.71141 7.11628 4.7058 7.11628C4.69493 7.11664 4.68125 7.11882 4.67354 7.11338C4.66828 7.10938 4.66688 7.09267 4.67003 7.08396C4.68231 7.04873 4.70615 7.02476 4.73701 7.0037C4.77103 6.98045 4.81662 7.01205 4.84923 6.95939C4.87448 6.91871 4.94041 6.9031 4.96215 6.85153C4.98179 6.80504 5.01861 6.7749 5.04561 6.73604C5.04877 6.73132 5.05192 6.7255 5.05298 6.71969C5.05403 6.71497 5.05403 6.70844 5.05122 6.70517C5.04772 6.70117 5.04035 6.69681 5.03649 6.6979C4.92638 6.73422 4.81592 6.76981 4.7065 6.80867C4.67319 6.82029 4.64373 6.84245 4.60831 6.81412C4.60235 6.8094 4.58341 6.81194 4.57921 6.81775C4.53888 6.87441 4.4733 6.84862 4.4214 6.86896C4.38563 6.88276 4.34285 6.88094 4.30778 6.906C4.26219 6.93869 4.20889 6.94341 4.15628 6.94305C4.03179 6.94196 3.91396 6.97101 3.79789 7.01568C3.72635 7.04328 3.65446 7.06725 3.57696 7.02912C3.5454 7.0135 3.51033 7.01786 3.47561 7.03457C3.41635 7.06289 3.36445 7.05381 3.32622 6.99135C3.31816 6.97791 3.29606 6.97392 3.28133 6.96411C3.26275 6.95176 3.24977 6.9583 3.24171 6.97682C3.22978 7.00333 3.2105 7.01423 3.1863 7.00043C3.12984 6.96774 3.06567 6.95576 3.0085 6.92852C2.96116 6.90564 2.91803 6.90019 2.87419 6.91799C2.83702 6.93324 2.82229 6.92089 2.80897 6.88893C2.80756 6.8853 2.79003 6.88603 2.78091 6.88893C2.75566 6.89692 2.73287 6.9238 2.73041 6.86278C2.72901 6.82247 2.67185 6.81739 2.63924 6.85153C2.62065 6.87114 2.60066 6.87731 2.57682 6.87041C2.56174 6.86605 2.54911 6.86206 2.55788 6.83518C2.57471 6.78434 2.56069 6.76872 2.52281 6.76509C2.47231 6.76001 2.43374 6.7916 2.3885 6.80141C2.35799 6.80795 2.33274 6.78979 2.32818 6.75674C2.32573 6.73894 2.32713 6.72042 2.32468 6.70262C2.32117 6.6772 2.3089 6.65396 2.28224 6.65323C2.2321 6.65178 2.19107 6.62563 2.1546 6.59839C2.1041 6.56062 2.05325 6.5421 1.99223 6.54682C1.95962 6.54937 1.93823 6.53012 1.92069 6.50361C1.91052 6.48835 1.89614 6.47818 1.87686 6.48726C1.85617 6.49707 1.83337 6.51595 1.81514 6.49089C1.80882 6.48218 1.82355 6.4593 1.82531 6.44223C1.82741 6.42225 1.81549 6.4041 1.79795 6.40192C1.70923 6.39102 1.63769 6.3518 1.56615 6.29405C1.50373 6.24357 1.41957 6.22215 1.34522 6.18764C1.32489 6.1782 1.31191 6.19237 1.29893 6.2029C1.27088 6.22505 1.24142 6.22069 1.21863 6.20036C1.16112 6.14915 1.10641 6.09467 1.05206 6.0402C1.024 6.01223 1.04715 5.98536 1.05837 5.95884C1.06398 5.95703 1.06959 5.95521 1.0752 5.95376C1.09449 5.94904 1.1278 5.95376 1.10361 5.91672C1.09098 5.8971 1.07239 5.88185 1.05556 5.86551C1.05276 5.8626 1.04469 5.86224 1.04118 5.86442C1.03698 5.86732 1.03137 5.87531 1.03277 5.87858C1.04224 5.90691 1.05311 5.93451 1.06363 5.96248L1.06433 5.95993ZM1.0994 2.24139C1.06854 2.23667 1.04083 2.27517 1.00506 2.24321C0.988582 2.22868 0.963333 2.24975 0.948955 2.27045C0.909328 2.32747 0.914588 2.37323 0.96193 2.42915C0.973853 2.44332 0.977009 2.44877 0.981919 2.43061C0.998401 2.36923 1.06047 2.34381 1.08467 2.28933C1.09168 2.27372 1.09203 2.25483 1.09554 2.2374C1.14008 2.20798 1.16042 2.1575 1.19092 2.11646C1.20074 2.10302 1.20039 2.07869 1.18216 2.07107C1.16883 2.06562 1.14779 2.06743 1.13517 2.07506C1.09835 2.09794 1.08642 2.14079 1.0738 2.17893C1.06854 2.19491 1.08993 2.21997 1.0994 2.24103V2.24139ZM3.95885 4.81158C4.10088 4.80213 4.23378 4.75964 4.36213 4.69899C4.39054 4.68556 4.40737 4.6605 4.40702 4.62708C4.40702 4.59694 4.40702 4.56643 4.40281 4.53665C4.39825 4.50578 4.38212 4.47092 4.35267 4.46801C4.2934 4.46184 4.25097 4.41063 4.19486 4.40845C4.10263 4.40519 4.01777 4.35688 3.92343 4.36887C3.89047 4.37323 3.87223 4.34998 3.8803 4.32202C3.91186 4.21016 3.98094 4.13535 4.08545 4.09286C4.12858 4.07542 4.18048 4.06199 4.20924 4.02894C4.25728 3.9741 4.28674 3.99589 4.32426 4.03438C4.33478 4.04492 4.35231 4.05799 4.36424 4.03148C4.37125 4.01586 4.37721 3.9977 4.38879 3.98608C4.47821 3.89238 4.47856 3.89275 4.37476 3.82955C4.35477 3.81757 4.33233 3.80922 4.31374 3.79542C4.27131 3.76491 4.22958 3.75401 4.18504 3.78961C4.164 3.80631 4.14226 3.80486 4.12051 3.79106C4.09211 3.77254 4.06546 3.77399 4.04196 3.79977C3.99357 3.8528 3.94237 3.90219 3.8796 3.93742C3.84804 3.95521 3.82068 3.97955 3.81121 4.01695C3.79368 4.08523 3.74599 4.13099 3.69865 4.17457C3.65306 4.2167 3.62711 4.26754 3.60852 4.32492C3.59555 4.36487 3.58538 4.40591 3.5731 4.44622C3.55837 4.49525 3.56504 4.54065 3.58538 4.58714C3.63622 4.70408 3.82524 4.82102 3.95885 4.81194V4.81158ZM3.46509 5.77653C3.51419 5.78743 3.5738 5.75547 3.63237 5.73077C3.71267 5.697 3.79263 5.66032 3.86276 5.60475C3.86802 5.60075 3.88977 5.61819 3.89433 5.61419C3.91993 5.59131 3.95149 5.5688 3.96481 5.53829C3.98515 5.49108 4.02162 5.4849 4.0609 5.47655C4.06616 5.47546 4.07002 5.46929 4.07458 5.46565C4.06546 5.46021 4.05739 5.45258 4.04757 5.44967C4.01847 5.44096 3.982 5.43733 3.96376 5.45948C3.90309 5.53175 3.81437 5.51977 3.73932 5.54555C3.68602 5.56407 3.62395 5.55536 3.56574 5.5579C3.53979 5.55899 3.51945 5.54374 3.51033 5.52086C3.49455 5.48018 3.47526 5.44931 3.42617 5.46384C3.38479 5.41045 3.3171 5.42679 3.26766 5.39992C3.21611 5.37232 3.17403 5.32728 3.10915 5.36542C3.09898 5.37123 3.07724 5.35707 3.06146 5.35089C3.00149 5.32656 2.94959 5.28879 2.89559 5.25247C2.81984 5.20126 2.77425 5.14134 2.78197 5.04546C2.78232 5.04001 2.77986 5.02984 2.77706 5.02912C2.76864 5.02694 2.75777 5.02549 2.75075 5.02912C2.71884 5.04582 2.69815 5.04219 2.68377 5.00406C2.62626 4.85044 2.59926 4.68919 2.59961 4.49598C2.59961 4.48508 2.59365 4.47201 2.58628 4.46438C2.57541 4.45276 2.56454 4.43424 2.54315 4.45131C2.51019 4.47746 2.47757 4.50397 2.47547 4.55154C2.47372 4.59404 2.47337 4.63616 2.45303 4.67539C2.43795 4.70444 2.44496 4.73349 2.45794 4.76219C2.47056 4.78942 2.48774 4.81739 2.4895 4.84608C2.49125 4.87441 2.47407 4.9031 2.46881 4.93251C2.4639 4.95939 2.47828 4.96556 2.51369 4.95285C2.51895 4.95104 2.52316 4.94414 2.52842 4.94377C2.53894 4.94268 2.54946 4.9445 2.55998 4.94486C2.55858 4.95467 2.56104 4.96956 2.55542 4.97355C2.52001 5.00079 2.49967 5.03275 2.50423 5.08105C2.50703 5.11011 2.50914 5.14497 2.49651 5.16894C2.46881 5.22196 2.50072 5.26373 2.51615 5.30477C2.52807 5.33745 2.53789 5.30005 2.54666 5.29133C2.56419 5.27353 2.58664 5.25501 2.60242 5.28516C2.64906 5.37304 2.7241 5.43006 2.79915 5.48781C2.81318 5.4987 2.81598 5.50778 2.7995 5.51468C2.73603 5.54228 2.77776 5.56843 2.80406 5.58187C2.86648 5.61347 2.9261 5.65741 2.99763 5.66286C3.13159 5.67266 3.26626 5.68755 3.39811 5.6447C3.40898 5.64107 3.42266 5.63635 3.43178 5.64034C3.44686 5.64724 3.46053 5.65923 3.47175 5.67194C3.48017 5.68138 3.47386 5.69191 3.46053 5.69954C3.43493 5.71407 3.41003 5.72895 3.38479 5.74384C3.37988 5.74675 3.37567 5.75111 3.37111 5.75474C3.37847 5.75874 3.38549 5.76491 3.3932 5.76673C3.41039 5.77036 3.42792 5.77145 3.46404 5.77617L3.46509 5.77653ZM4.5508 2.85952C4.50802 2.85952 4.49013 2.85734 4.4733 2.86061C4.46594 2.86206 4.45927 2.87332 4.45506 2.88167C4.45366 2.88458 4.45822 2.89365 4.46243 2.89729C4.50732 2.93469 4.5522 2.97246 4.59849 3.00842C4.61217 3.01895 4.629 3.02839 4.64548 3.0313C4.70265 3.04183 4.76612 3.03929 4.77173 3.12463C4.77243 3.13226 4.78751 3.14243 4.79768 3.14533C4.85344 3.16095 4.90955 3.17475 4.96601 3.18819C4.97092 3.18928 4.97688 3.18637 4.98179 3.18419C4.99652 3.17802 4.99441 3.1693 4.99196 3.1555C4.97512 3.06289 4.90674 3.02294 4.8352 2.98554C4.78225 3.00006 4.74508 2.96702 4.71387 2.9336C4.66091 2.87695 4.6006 2.8508 4.55045 2.85915L4.5508 2.85952ZM0.867948 7.478C0.865844 7.46711 0.867246 7.45331 0.861285 7.44604C0.819554 7.39592 0.774666 7.34871 0.733286 7.29823C0.685593 7.24012 0.652629 7.17802 0.697166 7.10066C0.702777 7.09086 0.702426 7.07742 0.70453 7.0658C0.708388 7.0411 0.683489 7.01532 0.662098 7.02331C0.645616 7.02948 0.629484 7.03711 0.614405 7.04619C0.561102 7.07706 0.542165 7.14388 0.573376 7.19436C0.611249 7.25501 0.646668 7.3182 0.690854 7.37341C0.731533 7.42389 0.782381 7.46638 0.830074 7.51069C0.847257 7.52667 0.822008 7.50996 0.844452 7.50342C0.85392 7.50088 0.860233 7.48672 0.867948 7.47764V7.478ZM2.19492 3.10902C2.25279 3.10647 2.32257 3.0618 2.32468 3.01096C2.32713 2.94123 2.34151 2.88167 2.39096 2.83264C2.39446 2.82901 2.38885 2.80867 2.38219 2.80213C2.37517 2.7956 2.3615 2.7956 2.35063 2.79487C2.34572 2.79487 2.33905 2.79887 2.3359 2.80359C2.27628 2.88421 2.21632 2.96484 2.15916 3.04728C2.15214 3.05708 2.15916 3.08105 2.16512 3.09558C2.16827 3.10321 2.18476 3.10466 2.19528 3.10902H2.19492ZM2.93977 8.30967C2.94994 8.30531 2.96221 8.30277 2.97028 8.29587C3.04533 8.23014 3.11476 8.16041 3.13896 8.05617C3.14282 8.03911 3.15088 8.02276 3.15719 8.00606C3.17297 7.96574 3.16842 7.93161 3.14737 7.93306C3.11441 7.93524 3.09688 7.95884 3.07934 7.98281C3.05935 8.00969 3.06777 8.04019 3.07128 8.06925C3.07864 8.12736 3.04603 8.15823 3.00079 8.17929C2.98536 8.18655 2.96607 8.18474 2.95064 8.192C2.93556 8.19927 2.92154 8.21125 2.91066 8.22432C2.89278 8.24539 2.89874 8.26936 2.91172 8.29006C2.91733 8.29914 2.92995 8.3035 2.93942 8.31003L2.93977 8.30967ZM5.09541 2.16658C5.09856 2.16658 5.08629 2.1644 5.07577 2.16731C5.067 2.16985 5.05894 2.17784 5.05227 2.1851C5.05087 2.18692 5.05473 2.19781 5.05859 2.20072C5.1424 2.26209 5.21709 2.338 5.31634 2.37432C5.32475 2.37722 5.33668 2.36959 5.3472 2.36669C5.34404 2.3616 5.34159 2.35616 5.33773 2.3518C5.30932 2.31476 5.27531 2.28098 5.25286 2.2403C5.21955 2.18074 5.17326 2.15823 5.09541 2.16658ZM2.78933 2.46002C2.70201 2.47165 2.61925 2.49634 2.55613 2.5668C2.52456 2.60239 2.49265 2.63762 2.46214 2.67393C2.45688 2.68047 2.45618 2.69137 2.45373 2.70008C2.4646 2.70008 2.47933 2.70553 2.48564 2.70008C2.57962 2.61764 2.68728 2.55808 2.79494 2.49816C2.7995 2.49562 2.80266 2.48908 2.80476 2.48399C2.80616 2.48 2.80686 2.47346 2.80476 2.47019C2.8016 2.46584 2.79529 2.46329 2.78968 2.45966L2.78933 2.46002ZM1.37644 4.77199C1.37644 4.72986 1.37749 4.68774 1.37538 4.64561C1.37538 4.63871 1.36136 4.62563 1.35575 4.62672C1.34593 4.62854 1.33576 4.63798 1.32874 4.6467C1.32173 4.65578 1.31401 4.6674 1.31331 4.67829C1.3063 4.76691 1.30034 4.85552 1.29578 4.94414C1.29508 4.95467 1.3049 4.96593 1.31016 4.97646C1.31752 4.99171 1.34487 4.99462 1.35259 4.98082C1.36101 4.96556 1.37398 4.94995 1.37503 4.93397C1.37784 4.87985 1.37608 4.82574 1.37608 4.77163L1.37644 4.77199ZM1.22669 7.35815C1.22038 7.36469 1.20916 7.37086 1.20811 7.37849C1.20495 7.40028 1.19829 7.43224 1.22915 7.43333C1.25861 7.43406 1.26948 7.44459 1.27439 7.4711C1.2786 7.49398 1.28105 7.52049 1.31436 7.50124C1.3582 7.47582 1.40624 7.49798 1.45078 7.48744C1.45885 7.48563 1.46551 7.47401 1.47042 7.46565C1.47217 7.46239 1.46866 7.45222 1.46481 7.44967C1.41711 7.41953 1.36907 7.39011 1.32103 7.36033C1.28947 7.39629 1.25826 7.37595 1.22634 7.35852L1.22669 7.35815ZM2.16687 5.53829C2.17213 5.50742 2.1823 5.48672 2.17634 5.47364C2.1546 5.42498 2.12409 5.38176 2.07639 5.35489C2.06272 5.34726 2.0557 5.35089 2.0515 5.36723C2.02484 5.47619 2.07394 5.55027 2.15495 5.61056C2.16827 5.62073 2.17564 5.62182 2.18125 5.6062C2.183 5.60112 2.18405 5.59458 2.18265 5.5895C2.17669 5.56807 2.16968 5.54664 2.16687 5.53829ZM2.27313 5.23867C2.26997 5.24375 2.26331 5.24957 2.26401 5.25356C2.28645 5.34072 2.31731 5.42353 2.37132 5.4958C2.38885 5.5194 2.40533 5.54483 2.4376 5.54955C2.45864 5.55282 2.46179 5.51069 2.43199 5.45875C2.38815 5.38321 2.33555 5.31276 2.28645 5.24049C2.2847 5.23794 2.27804 5.2394 2.27348 5.23903L2.27313 5.23867ZM1.48024 4.04455C1.48024 4.04237 1.48129 4.03584 1.47918 4.03039C1.47603 4.02204 1.47042 4.01441 1.46586 4.00642C1.462 4.01114 1.45744 4.01514 1.45499 4.02022C1.41957 4.08922 1.38029 4.27517 1.38205 4.3656C1.38205 4.37068 1.3866 4.37904 1.39081 4.38013C1.39502 4.38158 1.40274 4.37758 1.40624 4.37323C1.41676 4.35979 1.43184 4.34599 1.43465 4.33037C1.45113 4.23667 1.46481 4.14225 1.48024 4.04455ZM0.50885 6.01259C0.49868 6.01804 0.485705 6.02058 0.479393 6.02894C0.457651 6.05581 0.450988 6.09395 0.418024 6.11319C0.401191 6.123 0.40084 6.14152 0.408205 6.15895C0.415218 6.1753 0.453443 6.18147 0.470977 6.16985C0.525683 6.13353 0.541463 6.09794 0.528839 6.03547C0.527086 6.02676 0.515864 6.01986 0.509201 6.01223L0.50885 6.01259ZM0.183769 5.0066C0.183769 4.99861 0.184821 4.9928 0.183769 4.98735C0.180613 4.97174 0.179561 4.95176 0.159922 4.95031C0.151155 4.94958 0.13783 4.95975 0.133621 4.96847C0.117841 4.99934 0.105567 5.03202 0.0908383 5.06326C0.0806685 5.08505 0.0743563 5.10647 0.084526 5.12972C0.0915397 5.14606 0.126608 5.12826 0.152909 5.10212C0.180613 5.07415 0.178509 5.03856 0.184119 5.0066H0.183769ZM1.29332 3.90364C1.33295 3.89166 1.37538 3.82846 1.37468 3.77907C1.37468 3.7689 1.36662 3.75474 1.35855 3.75038C1.34312 3.74203 1.32313 3.74457 1.31577 3.76309C1.30069 3.80086 1.27333 3.83537 1.2786 3.87967C1.27965 3.88839 1.28841 3.89602 1.29367 3.90401L1.29332 3.90364ZM1.37538 5.36215C1.35785 5.3015 1.33821 5.23431 1.31822 5.16785C1.31717 5.16495 1.3077 5.16349 1.30209 5.16349C1.29788 5.16349 1.29227 5.16604 1.28947 5.16967C1.28596 5.17366 1.2821 5.18093 1.28315 5.18492C1.30419 5.25138 1.31016 5.32402 1.35469 5.3814C1.3568 5.38394 1.36381 5.38612 1.36416 5.38576C1.36732 5.38103 1.36942 5.37559 1.37538 5.36215ZM1.77095 5.29823C1.7699 5.3469 1.78498 5.39048 1.80953 5.43115C1.81163 5.43478 1.8197 5.43842 1.82215 5.43696C1.82671 5.43442 1.83092 5.42825 1.83197 5.4228C1.846 5.35997 1.81794 5.30767 1.79059 5.25574C1.78849 5.25174 1.78323 5.24957 1.77937 5.24666C1.77656 5.25174 1.772 5.25683 1.7713 5.26228C1.7699 5.2739 1.77095 5.28588 1.7713 5.29787L1.77095 5.29823ZM0.164832 4.68882C0.156065 4.69536 0.142038 4.69972 0.138882 4.70807C0.119243 4.76182 0.10206 4.8163 0.0848767 4.87077C0.0838247 4.87404 0.0901369 4.88312 0.0943451 4.88421C0.0985533 4.8853 0.104866 4.87985 0.108723 4.87586C0.15361 4.82792 0.155364 4.76182 0.1743 4.70299C0.175352 4.69972 0.168339 4.69355 0.165183 4.68882H0.164832ZM0.814995 5.04074C0.814995 5.07742 0.813241 5.10139 0.816047 5.12463C0.817099 5.13226 0.829723 5.14388 0.836737 5.14388C0.846556 5.14352 0.859181 5.13589 0.864792 5.12718C0.873559 5.11301 0.885482 5.09376 0.882326 5.08033C0.872857 5.0411 0.857077 5.00333 0.843049 4.9652C0.840945 4.95975 0.836386 4.95576 0.832879 4.95104C0.830074 4.95612 0.825165 4.96084 0.824463 4.96629C0.820255 4.99534 0.81745 5.02476 0.815345 5.0411L0.814995 5.04074ZM1.27123 7.71116C1.26667 7.71443 1.26071 7.71661 1.25755 7.72097C1.25545 7.72423 1.25475 7.73113 1.2565 7.73477C1.27614 7.77544 1.31857 7.78307 1.35154 7.8045C1.35469 7.80631 1.36171 7.80449 1.36521 7.80195C1.36872 7.79905 1.37328 7.79215 1.37223 7.78815C1.36136 7.74276 1.32278 7.7137 1.27123 7.71152V7.71116ZM0.803422 5.2423C0.799565 5.24412 0.793253 5.24448 0.792201 5.24739C0.777823 5.28734 0.780628 5.32583 0.804124 5.36142C0.806228 5.36433 0.816047 5.36469 0.820255 5.36251C0.829022 5.35779 0.841647 5.35162 0.844101 5.34363C0.854622 5.30767 0.847257 5.27499 0.819203 5.24957C0.815345 5.24593 0.809033 5.24484 0.803773 5.24266L0.803422 5.2423ZM3.79999 8.07579C3.8277 8.06053 3.8575 8.04492 3.88661 8.02857C3.89152 8.02603 3.89503 8.02095 3.89924 8.01732C3.88942 8.01259 3.87995 8.0046 3.87013 8.00424C3.83471 8.00315 3.8035 8.01332 3.78421 8.0471C3.78211 8.05036 3.78211 8.0569 3.78421 8.06053C3.78702 8.06525 3.79228 8.06852 3.79999 8.07579ZM2.85947 7.86297C2.81528 7.85026 2.79319 7.86333 2.776 7.88911C2.77285 7.89384 2.76654 7.89856 2.76689 7.90292C2.76724 7.90727 2.77565 7.91454 2.77846 7.91381C2.80862 7.90255 2.83842 7.89057 2.86823 7.87822C2.87174 7.87677 2.87454 7.87241 2.8777 7.8695C2.86753 7.86587 2.85701 7.8626 2.85982 7.86333L2.85947 7.86297ZM2.87279 2.37432C2.8798 2.38376 2.88612 2.39356 2.89418 2.40192C2.90646 2.41499 2.91382 2.41136 2.91943 2.39429C2.92469 2.37758 2.93065 2.35979 2.94082 2.34635C2.95064 2.33291 2.9538 2.3242 2.93907 2.31911C2.92925 2.31584 2.91557 2.31512 2.90681 2.31984C2.88612 2.33073 2.87104 2.3478 2.87279 2.37432ZM4.54694 6.02567C4.548 6.03112 4.548 6.03693 4.54975 6.04201C4.55536 6.05726 4.56413 6.05835 4.57745 6.04927C4.6013 6.03257 4.62514 6.01623 4.63531 5.98681C4.63672 5.98281 4.63602 5.97591 4.63356 5.97264C4.6304 5.96865 4.62409 5.96465 4.61953 5.96465C4.58166 5.96647 4.56062 5.98463 4.54694 6.02567ZM1.25475 6.1161C1.25019 6.09576 1.21512 6.06852 1.19478 6.07252C1.18917 6.07361 1.18111 6.09213 1.18181 6.09249C1.19829 6.10593 1.21512 6.11828 1.23301 6.1299C1.23616 6.13208 1.24353 6.13063 1.24703 6.12808C1.25054 6.1259 1.25229 6.12009 1.25475 6.11574V6.1161ZM1.79445 3.98354C1.79094 3.97882 1.78533 3.96938 1.78428 3.96974C1.76289 3.981 1.7443 3.99552 1.7422 4.0224C1.74114 4.03838 1.74991 4.04492 1.76078 4.03838C1.78147 4.02639 1.80111 4.01332 1.7941 3.98318L1.79445 3.98354Z" fill="black"/>
    <path d="M1.00672 6.57519C1.01268 6.57228 1.02285 6.56538 1.03372 6.56284C1.05792 6.55703 1.06318 6.57592 1.06037 6.59262C1.04915 6.65763 1.03092 6.71792 0.973055 6.75896C0.930973 6.78874 0.867149 6.76586 0.854174 6.71138C0.840147 6.65218 0.865396 6.59662 0.917297 6.58173C0.943949 6.5741 0.973756 6.57737 1.00672 6.57519Z" fill="black"/>
    <path d="M0.531625 4.94528L0.533378 4.96017C0.514091 4.97215 0.490946 4.98051 0.476217 4.99685C0.459735 5.01501 0.477269 5.05823 0.438694 5.05931C0.434135 5.05931 0.424316 5.01682 0.424316 4.99358C0.424316 4.93329 0.42642 4.87264 0.432031 4.81272C0.433434 4.79819 0.450617 4.7833 0.463242 4.77168C0.481477 4.75497 0.494453 4.77459 0.508831 4.78258C0.565992 4.81526 0.566342 4.81671 0.549159 4.87482C0.542496 4.8977 0.537586 4.92131 0.531625 4.94455V4.94528Z" fill="black"/>
    <path d="M0.320505 6.39287C0.319804 6.41684 0.320856 6.44117 0.3177 6.46477C0.316648 6.47349 0.303322 6.48802 0.299114 6.48693C0.265799 6.47749 0.231783 6.46841 0.201624 6.4517C0.172518 6.43536 0.179531 6.34856 0.210041 6.32277C0.218808 6.31515 0.23038 6.31152 0.24055 6.30534C0.27176 6.28718 0.279826 6.28972 0.289295 6.32205C0.29736 6.34892 0.288593 6.38415 0.324363 6.39722L0.320505 6.3925V6.39287Z" fill="black"/>
    <path d="M2.99997 0.851959C2.91195 0.845422 2.82709 0.861765 2.74328 0.887187C2.73942 0.888276 2.72925 0.881376 2.72925 0.878108C2.72925 0.868302 2.72995 0.852685 2.73556 0.849417C2.79167 0.819637 2.85444 0.806199 2.9095 0.771334C2.95509 0.742644 2.98875 0.771334 2.99612 0.838158C2.99682 0.843969 2.99577 0.850143 2.99541 0.856317L2.99997 0.851596V0.851959Z" fill="black"/>
    <path d="M2.46884 0.933594C2.47795 0.941947 2.48637 0.948121 2.49233 0.956474C2.49479 0.960105 2.49374 0.971727 2.49128 0.97318C2.43657 1.00005 2.38152 1.02584 2.32681 1.05235C2.31454 1.05816 2.30367 1.05526 2.30121 1.04037C2.29946 1.0302 2.30332 1.01785 2.30823 1.00804C2.31313 0.997876 2.32085 0.985165 2.32997 0.981896C2.37626 0.964464 2.42325 0.94921 2.46884 0.933957V0.933594Z" fill="black"/>
    <path d="M1.82313 1.19724C1.82102 1.20268 1.81927 1.2085 1.81647 1.21322C1.77719 1.28367 1.7039 1.28948 1.63937 1.31127C1.63727 1.312 1.6306 1.30365 1.6292 1.29856C1.6278 1.29312 1.62815 1.28331 1.63131 1.28113C1.68286 1.24518 1.72459 1.19106 1.79192 1.1838C1.80174 1.18271 1.81261 1.19252 1.82313 1.19724Z" fill="black"/>
    <path d="M2.0494 1.21659C2.03818 1.21477 2.0259 1.21513 2.01573 1.21114C2.00802 1.20787 2.00241 1.19915 1.99609 1.19262C2.03221 1.15521 2.06693 1.11635 2.10551 1.08185C2.11603 1.07241 2.13777 1.07567 2.1546 1.07458C2.15951 1.07458 2.16477 1.07894 2.16933 1.08221C2.1788 1.08875 2.18055 1.10073 2.16863 1.10981C2.14093 1.13015 2.11077 1.14686 2.08306 1.16719C2.06518 1.18027 2.04484 1.19334 2.04519 1.22131L2.04975 1.21695L2.0494 1.21659Z" fill="black"/>
    <path d="M4.74407 0.720048C4.74267 0.724406 4.74267 0.730216 4.73986 0.732759C4.73601 0.73639 4.72864 0.740385 4.72514 0.738933C4.68831 0.722227 4.65114 0.705521 4.61572 0.686272C4.6066 0.681188 4.60275 0.666661 4.59644 0.656492C4.60661 0.653224 4.61888 0.644144 4.62624 0.64705C4.65851 0.660487 4.69007 0.676103 4.72093 0.693536C4.7304 0.698983 4.73636 0.710968 4.74407 0.720048Z" fill="black"/>
    <path d="M0.589397 2.79786C0.584838 2.84471 0.574668 2.88829 0.528729 2.91117C0.524521 2.91335 0.518209 2.9148 0.515053 2.91298C0.510494 2.91044 0.504883 2.9039 0.504883 2.89918C0.506286 2.8556 0.529781 2.82328 0.558186 2.79423C0.561693 2.79059 0.569057 2.79023 0.574668 2.79096C0.579578 2.79132 0.584137 2.79531 0.589748 2.79786H0.589397Z" fill="black"/>
    <path d="M6.24185 7.056C6.24431 7.10576 6.2152 7.13227 6.17593 7.15115C6.17067 7.1537 6.164 7.15587 6.15909 7.15406C6.14331 7.14897 6.14401 7.14098 6.15208 7.12718C6.16961 7.09668 6.18329 7.06363 6.20082 7.03276C6.20433 7.02658 6.22222 7.02223 6.22677 7.02586C6.23449 7.03203 6.2373 7.04547 6.24185 7.05564V7.056Z" fill="black"/>
    <path d="M6.68016 5.41699C6.68998 5.42643 6.70435 5.43588 6.71242 5.44931C6.72995 5.47873 6.70085 5.48708 6.68647 5.50161C6.67455 5.5136 6.66718 5.5096 6.66262 5.4929C6.6528 5.45767 6.65841 5.4228 6.68016 5.41699Z" fill="black"/>
    <path d="M0.3854 3.14173C0.375581 3.13774 0.370321 3.13665 0.367516 3.13374C0.364359 3.13011 0.360502 3.12212 0.362255 3.11958C0.373828 3.09997 0.386803 3.08072 0.399778 3.0622C0.402233 3.05857 0.409948 3.0553 0.413104 3.05675C0.426079 3.06256 0.430638 3.07418 0.423274 3.08653C0.411351 3.10614 0.397674 3.12394 0.3854 3.14173Z" fill="black"/>
    <path d="M4.13275 0.55266C4.1068 0.557744 4.09102 0.542491 4.07664 0.523969C4.07313 0.519611 4.07103 0.514163 4.06787 0.509442C4.07804 0.506173 4.08961 0.49782 4.09803 0.500726C4.11311 0.506173 4.12608 0.517432 4.13941 0.527601C4.14327 0.530506 4.14677 0.538496 4.14572 0.542854C4.14467 0.547212 4.13731 0.549754 4.13275 0.55266Z" fill="black"/>
    <path d="M2.07031 6.6456C2.06645 6.65504 2.06435 6.67029 2.05804 6.67283C2.04331 6.67864 2.02507 6.67574 2.02192 6.6554C2.02051 6.64705 2.02718 6.63179 2.03419 6.62853C2.04962 6.62126 2.06435 6.62635 2.07066 6.6456H2.07031Z" fill="black"/>
    <path d="M1.53854 6.3591C1.55292 6.36418 1.56729 6.36963 1.58167 6.37472C1.57606 6.3838 1.5715 6.39469 1.56414 6.40195C1.54345 6.42157 1.52521 6.41394 1.50978 6.39324C1.50663 6.38888 1.50102 6.38089 1.50242 6.37907C1.50768 6.37181 1.51469 6.36527 1.52241 6.36055C1.52662 6.35801 1.53328 6.35946 1.53854 6.3591Z" fill="black"/>
  </g>
  <defs>
    <clipPath id="clip0_2001_10465">
      <rect width="7.11111" height="8" fill="white" transform="translate(0 0.5)"/>
    </clipPath>
  </defs>
</svg>