<svg xmlns="http://www.w3.org/2000/svg" width="75" height="19" viewBox="0 0 41 12" fill="none">
  <path d="M17.2213 0.851577C17.9874 0.823718 18.5189 1.16822 18.8711 1.56871C19.2197 1.96529 19.3957 2.41912 19.4643 2.6314L19.4649 2.63301C20.2536 5.16774 18.8601 7.48868 17.4796 9.04374C18.8645 9.62974 20.3376 10.0249 21.6615 10.1646C22.0278 10.1968 22.419 10.2118 22.7642 10.1562C23.0525 10.1098 23.2928 10.0167 23.4617 9.85785C23.2412 9.65914 22.9989 9.37694 22.8655 9.06426L22.8654 9.06408C22.8108 8.93564 22.7675 8.77199 22.7598 8.60259C22.7521 8.43366 22.7796 8.248 22.8793 8.08701L22.8794 8.08693C23.0043 7.88554 23.2156 7.77456 23.4599 7.7653L23.4604 7.76528C24.002 7.74675 24.357 8.23298 24.429 8.86465C24.4602 9.13627 24.4345 9.39656 24.3516 9.65307C25.6829 10.4295 27.4788 10.6653 29.4452 10.2971L29.4452 10.2971C30.8662 10.0312 32.2555 9.50308 33.6135 8.98613L33.6136 8.98609C34.1469 8.78356 35.6275 8.23224 35.8625 8.16185L35.8626 8.16182C36.5455 7.95778 37.8919 7.67526 39.0341 8.1866C39.608 8.44328 40.0331 8.8649 40.2948 9.4347L40.3925 9.64732H40.3167L16.4723 9.33533C16.4244 9.31221 16.3768 9.28891 16.3295 9.26543C16.3673 9.22835 16.4049 9.19114 16.4422 9.15382C16.0428 8.95751 15.6632 8.74897 15.3112 8.53215M17.2213 0.851577C17.2213 0.851576 17.2213 0.851576 17.2213 0.851576L17.2266 1.00148L17.2212 0.851581C17.2212 0.85158 17.2213 0.851578 17.2213 0.851577ZM17.2213 0.851577C16.1978 0.887816 15.5993 1.5638 15.3356 2.26885C14.5911 1.7616 13.6672 1.60782 12.9504 1.9196C12.3053 2.19999 11.9282 2.81135 11.8667 3.60839L11.8667 3.60851C11.776 4.7944 12.2189 5.81264 12.8809 6.65381C13.5416 7.49337 14.425 8.16302 15.2325 8.65986C15.2325 8.65988 15.2325 8.65989 15.2326 8.65991L15.3112 8.53215M15.3112 8.53215C13.7121 7.54833 11.8421 5.89711 12.0162 3.61994L15.3112 8.53215ZM15.462 2.35974C15.4441 2.41029 15.4279 2.46105 15.4135 2.51176C15.3714 2.47869 15.3287 2.44691 15.2853 2.41643L15.462 2.35974ZM23.762 9.19644C23.6491 9.07299 23.5468 8.93219 23.4878 8.79335L23.4747 8.76255C23.4525 8.70133 23.4396 8.63537 23.4367 8.57597C23.4333 8.50734 23.4441 8.4668 23.4512 8.45184C23.4563 8.45033 23.4663 8.44813 23.4833 8.44725H23.4906C23.5316 8.44725 23.5871 8.47444 23.6458 8.57399C23.7027 8.6704 23.7431 8.8058 23.759 8.94252L23.762 9.19644ZM16.8296 8.75162C16.419 8.55537 16.0299 8.34687 15.6693 8.12886L15.5849 8.07692C14.8382 7.61737 14.0355 7.01 13.4405 6.26645C12.8466 5.52424 12.4653 4.65428 12.5411 3.66178L12.5412 3.66173C12.5849 3.087 12.8272 2.71677 13.2177 2.54708C13.3784 2.47741 13.5623 2.44068 13.765 2.44068C14.2299 2.44068 14.7358 2.63444 15.1488 2.97951C15.1573 2.98674 15.1656 2.99388 15.1738 3.00098C15.1369 3.44961 15.1952 3.92201 15.3468 4.44065L15.3468 4.44063C15.3585 4.47888 15.4444 4.73399 15.576 4.98217C15.6451 5.1126 15.7317 5.25054 15.8332 5.35485C15.9315 5.45588 16.0704 5.55191 16.2393 5.53283L16.2401 5.53274C16.3228 5.52294 16.4197 5.4863 16.4961 5.39347C16.5703 5.3034 16.6121 5.1764 16.6209 5.01111L16.6209 5.01103C16.6635 4.20692 16.388 3.36227 15.8917 2.76772C16.0296 2.15311 16.4511 1.5634 17.2456 1.53483L17.2456 1.53483C17.7702 1.5158 18.1329 1.75465 18.3831 2.04476C18.6361 2.33809 18.7691 2.6793 18.8216 2.84121C19.5318 5.12314 18.1851 7.2778 16.8296 8.75162Z" fill="#FE6400" stroke="#FE6400" stroke-width="0.3"/>
</svg>