<svg width="277" height="25" viewBox="0 0 277 25" fill="none" xmlns="http://www.w3.org/2000/svg">
<g clip-path="url(#clip0_2001_8821)">
<path d="M3.61257 11.4246C4.02972 11.1061 4.44687 10.9469 4.86535 10.9469C5.00975 10.9469 5.15414 10.9628 5.29854 10.9946C5.89217 11.1379 6.18097 11.4723 6.16492 11.9991C8.31617 11.7125 9.67323 11.8399 10.2348 12.3812C10.7642 12.9399 10.8204 14.1341 10.4032 15.9665C9.74409 18.611 9.45129 20.3161 9.52482 21.0817C9.59702 21.846 9.90587 22.2374 10.4514 22.2533C10.9648 22.2374 11.7242 21.7836 12.727 20.8906C13.7297 19.9989 15.171 18.6044 17.0495 16.7082C18.0135 16.4057 18.4948 16.6923 18.4948 17.5681C18.4948 17.7751 18.4707 17.9741 18.4226 18.1652C16.3035 20.3161 14.5934 21.9734 13.2925 23.137C11.9916 24.2848 10.9327 24.858 10.1131 24.858C9.03682 24.8262 8.2667 24.4361 7.80142 23.6864C7.25592 22.6992 7.07008 21.3922 7.2479 19.7667C7.32812 19.098 7.57279 18.0219 7.98192 16.5397C8.39104 15.0576 8.53945 14.1739 8.42714 13.8873C8.28274 13.5847 7.46449 13.5529 5.97106 13.7917L1.37175 19.0741C0.457236 19.1856 -0.00135803 18.7397 -0.00135803 17.7353L3.6353 13.4812C3.29838 13.2583 3.1259 12.9518 3.11788 12.5617C3.10986 12.1716 3.27431 11.7934 3.61124 11.4259L3.61257 11.4246Z" fill="black"/>
<path d="M21.2651 12.3441C22.0994 12.0336 22.9912 11.8704 23.9378 11.8545C24.8363 11.8545 25.6398 12.1013 26.3457 12.5949C26.8431 12.977 27.0838 13.4547 27.0677 14.0292C27.0517 14.6025 26.8672 15.169 26.5142 15.7263C25.5997 16.9219 24.5836 17.7339 23.4672 18.1638C22.3508 18.5938 21.3761 18.8406 20.5418 18.9043C19.7062 18.9679 18.912 18.8883 18.1579 18.6654C18.0135 19.4151 18.0255 20.1077 18.194 20.7447C18.3625 21.3816 18.7997 21.8526 19.5069 22.1551C20.3894 22.4736 21.2731 22.597 22.1556 22.5253C23.038 22.4537 24.1063 22.1153 25.359 21.5089C27.4301 20.1077 29.3567 18.4425 31.1389 16.5132C32.0374 16.2743 32.488 16.561 32.488 17.373C32.488 17.5641 32.4639 17.787 32.4158 18.0418C30.5052 19.9857 28.5384 21.7146 26.5155 23.2286C25.1505 24.1521 23.4324 24.647 21.3614 24.7107C19.7235 24.6948 18.5563 24.4401 17.8571 23.9464C17.1592 23.4528 16.6765 22.9539 16.4118 22.4524C16.147 21.9508 15.9826 21.1653 15.9184 20.0985C15.9184 18.6641 16.2313 17.3425 16.857 16.131C17.4185 15.1438 18.0857 14.3424 18.8558 13.7294C19.6259 13.1163 20.4295 12.6533 21.2638 12.3428L21.2651 12.3441ZM21.5058 14.3159C20.3493 14.7776 19.4187 15.6626 18.7128 16.9683C20.7838 17.2549 22.3855 16.9763 23.5166 16.1324C24.6491 15.2885 25.0702 14.6184 24.7814 14.1248C24.3162 13.5197 23.2238 13.5834 21.5058 14.3159Z" fill="black"/>
<path d="M35.8826 12.2366C36.2196 12.0933 36.6046 12.1172 37.0391 12.3083C37.344 12.4834 37.5205 12.8894 37.5686 13.5277C38.7732 12.571 39.9765 12.0615 41.1812 11.9978C41.7106 11.9978 42.0636 12.157 42.2414 12.4755C42.45 12.8576 42.5703 13.2875 42.6024 13.7665C42.6345 14.2442 42.5703 14.9939 42.4099 16.013L41.4954 21.0565C41.351 21.7412 41.351 22.1326 41.4954 22.2281C41.72 22.3873 42.1853 22.1565 42.8926 21.5355C44.6908 20.117 46.5132 18.4372 48.3596 16.492C49.3864 16.1576 49.9012 16.4681 49.9012 17.4234C49.9012 17.5508 49.8931 17.6941 49.8771 17.8534C47.5814 20.0998 45.735 21.7889 44.3379 22.9208C43.1172 23.9717 41.9941 24.5144 40.9659 24.5462C40.3242 24.4666 39.8455 24.2277 39.5327 23.8297C39.2198 23.4316 39.0794 22.9619 39.1115 22.4192L40.2921 16.3009C40.4846 15.1863 40.3643 14.6555 39.9311 14.7113C39.4979 14.767 39.0674 14.9262 38.6422 15.189C38.217 15.4517 37.8507 16.1257 37.5459 17.2085L35.8118 24.0685C35.6834 24.594 35.2181 24.8567 34.4146 24.8567C33.8851 24.8408 33.6685 24.5462 33.7648 23.9717L35.547 16.204C35.6433 15.8378 35.6674 15.5512 35.6192 15.3442C35.5711 15.1372 35.2703 15.2964 34.7168 15.8219C34.1632 16.3473 33.0508 17.3996 31.3809 18.9772C30.4824 19.1046 30.0319 18.6667 30.0319 17.6623C32.5842 14.6356 34.5349 12.8271 35.884 12.2366H35.8826Z" fill="black"/>
<path d="M52.38 0C53.2303 0.0318454 53.6167 0.326416 53.5365 0.883711L52.646 5.37657L56.6918 5.40046C57.5742 5.36861 57.9767 5.71891 57.8965 6.45268C57.8965 7.29791 57.4793 7.71987 56.6437 7.71987H52.0203L49.7086 18.1161C49.115 20.7301 49.4439 22.0994 50.6967 22.2268C51.2743 22.2746 52.2061 21.7849 53.4897 20.7566C54.7745 19.7283 56.387 18.2594 58.331 16.3473C59.2615 16.0448 59.7282 16.3951 59.7282 17.3996C59.7282 17.5747 59.6961 17.7578 59.6319 17.9489C57.4486 20.0679 55.2732 21.9322 53.106 23.5417C52.1099 24.2437 51.0269 24.6179 49.8544 24.6656C48.0079 24.6179 47.0212 23.4462 46.8915 21.152C46.8915 20.0374 47.1803 18.3071 47.7579 15.9652L51.1299 0.835943C51.2743 0.278648 51.6914 0 52.3826 0L52.38 0Z" fill="black"/>
<path d="M60.9288 11.4246C61.3459 11.1061 61.7631 10.9469 62.1816 10.9469C62.326 10.9469 62.4704 10.9628 62.6148 10.9946C63.2084 11.1379 63.4972 11.4723 63.4811 11.9991C65.6324 11.7125 66.9895 11.8399 67.551 12.3812C68.0805 12.9399 68.1366 14.1341 67.7195 15.9665C67.0603 18.611 66.7675 20.3161 66.841 21.0817C66.9132 21.846 67.2221 22.2374 67.7676 22.2533C68.281 22.2374 69.0404 21.7836 70.0432 20.8906C71.0459 19.9989 72.4872 18.6044 74.3657 16.7082C75.3297 16.4057 75.811 16.6923 75.811 17.5681C75.811 17.7751 75.787 17.9741 75.7388 18.1652C73.6197 20.3161 71.9096 21.9734 70.6087 23.137C69.3078 24.2848 68.2489 24.858 67.4293 24.858C66.353 24.8262 65.5829 24.4361 65.1176 23.6864C64.5721 22.6992 64.3863 21.3922 64.5641 19.7667C64.6443 19.098 64.889 18.0219 65.2981 16.5397C65.7073 15.0576 65.8557 14.1739 65.7434 13.8873C65.599 13.5847 64.7807 13.5529 63.2873 13.7917L58.688 19.0741C57.7735 19.1856 57.3149 18.7397 57.3149 17.7353L60.9515 13.4812C60.6146 13.2583 60.4421 12.9518 60.4341 12.5617C60.4261 12.1716 60.5905 11.7934 60.9275 11.4259L60.9288 11.4246Z" fill="black"/>
<path d="M78.5813 12.3441C79.4156 12.0336 80.3074 11.8704 81.254 11.8545C82.1525 11.8545 82.956 12.1013 83.6619 12.5949C84.1593 12.977 84.4 13.4547 84.3839 14.0292C84.3679 14.6025 84.1834 15.169 83.8304 15.7263C82.9159 16.9219 81.8998 17.7339 80.7834 18.1638C79.667 18.5938 78.6923 18.8406 77.858 18.9043C77.0224 18.9679 76.2282 18.8883 75.4741 18.6654C75.3297 19.4151 75.3417 20.1077 75.5102 20.7447C75.6787 21.3816 76.1159 21.8526 76.8232 22.1551C77.7056 22.4736 78.5893 22.597 79.4718 22.5253C80.3542 22.4537 81.4225 22.1153 82.6752 21.5089C84.7463 20.1077 86.6729 18.4425 88.4551 16.5132C89.3536 16.2743 89.8042 16.561 89.8042 17.373C89.8042 17.5641 89.7801 17.787 89.732 18.0418C87.8214 19.9857 85.8546 21.7146 83.8317 23.2286C82.4667 24.1521 80.7486 24.647 78.6776 24.7107C77.0397 24.6948 75.8725 24.4401 75.1733 23.9464C74.4754 23.4528 73.9927 22.9539 73.728 22.4524C73.4632 21.9508 73.2988 21.1653 73.2346 20.0985C73.2346 18.6641 73.5475 17.3425 74.1732 16.131C74.7347 15.1438 75.4019 14.3424 76.172 13.7294C76.9421 13.1163 77.7457 12.6533 78.58 12.3428L78.5813 12.3441ZM78.822 14.3159C77.6655 14.7776 76.7349 15.6626 76.029 16.9683C78.1 17.2549 79.7017 16.9763 80.8328 16.1324C81.9653 15.2885 82.3864 14.6184 82.0976 14.1248C81.6324 13.5197 80.54 13.5834 78.822 14.3159Z" fill="black"/>
<path d="M92.5263 12.3441C93.3606 12.0336 94.2524 11.8704 95.199 11.8545C96.0975 11.8545 96.901 12.1013 97.6069 12.5949C98.1043 12.977 98.345 13.4547 98.3289 14.0292C98.3129 14.6025 98.1284 15.169 97.7754 15.7263C96.8609 16.9219 95.8448 17.7339 94.7284 18.1638C93.612 18.5938 92.6373 18.8406 91.803 18.9043C90.9674 18.9679 90.1732 18.8883 89.4191 18.6654C89.2747 19.4151 89.2867 20.1077 89.4552 20.7447C89.6237 21.3816 90.0609 21.8526 90.7681 22.1551C91.6506 22.4736 92.5343 22.597 93.4168 22.5253C94.2992 22.4537 95.3674 22.1153 96.6202 21.5089C98.6912 20.1077 100.618 18.4425 102.4 16.5132C103.299 16.2743 103.749 16.561 103.749 17.373C103.749 17.5641 103.725 17.787 103.677 18.0418C101.766 19.9857 99.7996 21.7146 97.7767 23.2286C96.4117 24.1521 94.6936 24.647 92.6226 24.7107C90.9847 24.6948 89.8175 24.4401 89.1183 23.9464C88.4204 23.4528 87.9377 22.9539 87.673 22.4524C87.4082 21.9508 87.2438 21.1653 87.1796 20.0985C87.1796 18.6641 87.4925 17.3425 88.1182 16.131C88.6797 15.1438 89.3469 14.3424 90.117 13.7294C90.8871 13.1163 91.6907 12.6533 92.525 12.3428L92.5263 12.3441ZM92.767 14.3159C91.6105 14.7776 90.6799 15.6626 89.974 16.9683C92.045 17.2549 93.6467 16.9763 94.7778 16.1324C95.9103 15.2885 96.3314 14.6184 96.0426 14.1248C95.5774 13.5197 94.485 13.5834 92.767 14.3159Z" fill="black"/>
<path d="M105.313 12.847C106.068 12.441 106.763 12.2141 107.397 12.1663C108.03 12.1185 108.572 12.1504 109.022 12.2618C109.472 12.3733 110.145 12.5803 111.045 12.8828L114.393 0.598429C114.489 0.264051 114.746 0.0968628 115.163 0.0968628C115.292 0.0968628 115.436 0.112786 115.596 0.144631C116.254 0.319781 116.527 0.654158 116.415 1.14776L111.599 19.0011L111.214 21.2714C111.182 22.26 111.623 22.451 112.539 21.8446C114.642 20.3147 116.641 18.5778 118.535 16.6339C119.578 16.3473 120.101 16.618 120.101 17.446C120.101 17.653 120.069 17.8679 120.004 18.0909C118.062 20.1621 116.312 21.7717 114.754 22.9194C113.196 24.0672 111.992 24.6404 111.141 24.6404C110.692 24.6404 110.275 24.513 109.889 24.2583C109.327 23.892 109.022 23.3188 108.974 22.5373C108.171 23.3175 107.449 23.8761 106.807 24.2105C106.229 24.4971 105.394 24.6404 104.303 24.6404C102.922 24.529 101.959 23.8045 101.413 22.4656C101.173 21.7173 101.052 20.9676 101.052 20.2192C101.052 19.3116 101.229 18.4027 101.582 17.4951C102.127 16.1244 102.697 15.1093 103.292 14.4472C103.886 13.7864 104.559 13.2517 105.315 12.8457L105.313 12.847ZM108.36 14.1619C107.711 14.138 106.943 14.3689 106.061 14.8546C105.177 15.3402 104.367 16.5397 103.629 18.4518C103.019 20.3161 103.276 21.5673 104.399 22.2042C105.507 22.4112 106.534 22.1445 107.482 21.4041C108.429 20.6637 109.16 19.4642 109.673 17.8069L110.516 14.8187C109.728 14.4048 109.01 14.1858 108.36 14.1619Z" fill="#EC651B"/>
<path d="M122.34 12.5723C123.271 12.0787 123.842 12.2937 124.05 13.2172C122.878 18.3324 122.264 21.1042 122.208 21.5342C122.152 21.9641 122.22 22.2122 122.412 22.2746C122.685 22.4179 123.451 21.976 124.712 20.9477C125.973 19.9193 127.541 18.4584 129.42 16.5623C130.398 16.2438 130.889 16.5225 130.889 17.3982C130.889 17.6052 130.873 17.8043 130.841 17.9953C128.642 20.1621 126.442 22.0901 124.243 23.7793C123.391 24.4002 122.428 24.7107 121.354 24.7107C120.566 24.6152 120.125 24.1932 120.029 23.4436C119.932 22.6952 119.972 21.8579 120.149 20.9344C120.325 20.0109 120.678 18.6482 121.209 16.8476L119.186 18.7357C118.256 18.895 117.789 18.5845 117.789 17.8043C117.789 17.645 117.805 17.454 117.837 17.231C119.459 15.6534 120.959 14.0996 122.34 12.571V12.5723ZM124.844 9.03482C125.615 9.00297 126.033 8.58102 126.097 7.76763C126.081 7.01927 125.632 6.61987 124.748 6.5721C123.978 6.61987 123.576 7.00202 123.544 7.71986C123.528 8.61286 123.961 9.05074 124.844 9.03482Z" fill="#EC651B"/>
<path d="M134.983 11.1857C136.236 11.2812 136.777 11.5201 136.609 11.9022C136.44 12.2844 136.557 12.7475 136.958 13.2888C137.712 14.1341 138.387 15.4716 138.981 17.304C139.285 18.5314 139.39 19.5584 139.294 20.3877L143.051 16.8263C144.014 16.5397 144.496 16.8582 144.496 17.783C144.496 17.9423 144.48 18.1254 144.448 18.3324C142.553 20.1807 141.296 21.3563 140.679 21.8579C140.061 22.3595 139.446 22.8345 138.836 23.2803C138.227 23.7262 137.608 24.0619 136.982 24.2848C136.436 24.4918 135.898 24.5953 135.368 24.5953C133.313 24.5475 131.571 23.6797 130.142 21.9906C129.483 21.0339 129.254 20.3691 129.456 19.995C129.656 19.6208 129.941 19.4098 130.31 19.362C130.679 19.3143 130.928 19.4496 131.056 19.7681C131.554 20.7884 132.405 21.6323 133.609 22.3011C134.942 22.8597 135.936 22.8106 136.595 22.1578C137.43 21.1547 137.632 19.8556 137.197 18.262C136.748 16.6366 136.041 15.2354 135.078 14.0558L129.37 19.4337C128.343 19.4178 127.917 18.9162 128.093 17.9277L134.982 11.1884L134.983 11.1857Z" fill="#EC651B"/>
<path d="M148.687 11.4007C149.185 11.2414 149.73 11.1618 150.325 11.1618C150.806 11.1618 151.328 11.2176 151.891 11.329C152.837 11.7112 153.501 12.222 153.878 12.8589C154.255 13.4958 154.447 14.158 154.455 14.8426C154.463 15.5273 154.319 16.0461 154.022 16.3964C153.725 16.7467 153.252 16.9497 152.601 17.0055C151.951 17.0612 151.569 16.8582 151.456 16.3964C151.344 15.9347 151.392 15.5525 151.601 15.2487C152.194 14.7551 152.343 14.3132 152.046 13.9218C151.749 13.5317 151.258 13.3326 150.577 13.3247C149.893 13.3167 149.155 13.5157 148.361 13.9218C147.567 14.3278 146.956 14.8028 146.531 15.3442C146.106 15.8856 145.737 16.4681 145.422 17.0891C145.11 17.71 144.889 18.3164 144.761 18.9056C144.632 19.4947 144.648 20.0852 144.809 20.6743C144.969 21.2635 145.418 21.7982 146.158 22.2759C147.218 22.6103 148.177 22.7138 149.036 22.5864C149.895 22.459 150.718 22.1405 151.504 21.631C153.447 20.2444 155.31 18.6521 157.092 16.8502C158.07 16.5795 158.561 16.8821 158.561 17.7578C158.561 17.9489 158.537 18.1559 158.489 18.3788C156.594 20.2272 154.636 21.8765 152.613 23.3268C151.504 23.9637 150.678 24.3352 150.133 24.4387C149.587 24.5422 148.784 24.6417 147.725 24.7373C146.263 24.7213 145.14 24.4626 144.353 23.961C143.565 23.4595 142.988 22.7536 142.619 21.846C142.346 21.1931 142.21 20.531 142.21 19.8623C142.21 19.496 142.25 19.1298 142.33 18.7623C142.667 17.3757 143.04 16.3765 143.45 15.7622C143.859 15.1491 144.293 14.5706 144.751 14.0292C145.208 13.4879 145.754 12.9943 146.389 12.5471C147.023 12.1013 147.79 11.7191 148.689 11.3993L148.687 11.4007Z" fill="#EC651B"/>
<path d="M161.992 12.3919C162.834 12.0814 163.706 11.9102 164.604 11.8783C165.519 11.8783 166.314 12.1331 166.988 12.6426C167.534 13.1362 167.879 13.6232 168.024 14.1009C168.169 14.5786 168.249 15.1531 168.265 15.8219C168.666 16.6339 169.091 17.1607 169.542 17.3996C169.991 17.6384 170.578 17.5508 171.3 17.1368C172.183 16.9776 172.625 17.2085 172.625 17.8295C172.625 18.0842 172.545 18.4106 172.384 18.81C171.148 19.8463 170.017 20.2444 168.988 20.0056C168.297 19.7827 167.752 19.4722 167.351 19.0741C166.998 19.9817 166.556 20.803 166.026 21.5355C165.496 22.2679 164.785 22.9579 163.894 23.6028C163.004 24.2477 162.068 24.5873 161.089 24.6192C159.933 24.5714 159.034 24.3246 158.393 23.8788C157.671 23.4011 157.125 22.5797 156.755 21.4174C156.643 21.0034 156.586 20.5735 156.586 20.1263C156.586 19.3143 156.771 18.4451 157.14 17.5216C157.493 16.63 157.882 15.8763 158.308 15.2633C158.734 14.6502 159.243 14.0969 159.838 13.602C160.432 13.1084 161.151 12.7063 161.993 12.3945L161.992 12.3919ZM161.186 15.0801C160.35 15.7011 159.668 16.7693 159.139 18.2833C158.576 20.259 158.858 21.566 159.981 22.2029C160.928 22.7124 162.06 22.3303 163.377 21.0551C164.485 19.9074 165.352 18.538 165.978 16.9444C165.625 16.3553 165.36 15.8325 165.183 15.3787C165.007 14.9249 164.846 14.4273 164.702 13.8846C163.385 13.8687 162.214 14.2668 161.186 15.0801Z" fill="#EC651B"/>
<path d="M175.538 12.6201C175.731 12.429 176.02 12.3335 176.406 12.3335C177.048 12.3972 177.329 12.6917 177.248 13.2185L176.092 17.783C175.433 20.6677 175.361 22.3157 175.875 22.731C176.453 23.145 177.337 22.7469 178.524 21.5355C179.857 20.1648 181.004 17.4327 181.968 13.3379C182.177 12.6851 182.594 12.3335 183.221 12.2857C183.911 12.3335 184.224 12.6201 184.159 13.1455C182.955 18.2607 182.329 21.0326 182.281 21.4625C182.233 21.8924 182.305 22.1313 182.498 22.179C182.77 22.3383 183.54 21.9044 184.809 20.876C186.077 19.849 187.642 18.3788 189.505 16.4667C190.5 16.1483 190.998 16.419 190.998 17.2788C190.998 17.4858 190.95 17.6928 190.854 17.8998C188.735 20.0507 186.559 21.9787 184.328 23.6837C183.348 24.4334 182.377 24.8156 181.413 24.8315C180.273 24.8315 179.84 23.9 180.112 22.0357C179.261 23.2949 178.41 24.1548 177.56 24.6165C177.079 24.8554 176.532 24.9827 175.922 24.9987C175.071 24.9987 174.413 24.5688 173.947 23.7076C173.37 22.4802 173.538 20.1303 174.453 16.6565L172.382 18.7596C171.435 18.9029 170.961 18.5765 170.961 17.779C170.961 17.6198 170.977 17.4367 171.009 17.2297C172.663 15.652 174.172 14.1142 175.536 12.6174L175.538 12.6201Z" fill="#EC651B"/>
<path d="M194.131 12.2366C194.468 12.0933 194.853 12.1172 195.287 12.3083C195.592 12.4834 195.769 12.8894 195.817 13.5277C197.022 12.571 198.225 12.0615 199.429 11.9978C199.959 11.9978 200.312 12.157 200.488 12.4755C200.697 12.8576 200.817 13.2875 200.849 13.7665C200.881 14.2442 200.817 14.9939 200.657 16.013L199.742 21.0565C199.598 21.7412 199.598 22.1326 199.742 22.2281C199.967 22.3873 200.432 22.1565 201.139 21.5355C202.938 20.117 204.76 18.4372 206.607 16.492C207.633 16.1576 208.148 16.4681 208.148 17.4234C208.148 17.5508 208.14 17.6941 208.124 17.8534C205.828 20.0998 203.982 21.7889 202.585 22.9208C201.364 23.9717 200.241 24.5144 199.213 24.5462C198.571 24.4666 198.092 24.2277 197.78 23.8297C197.467 23.4316 197.326 22.9619 197.358 22.4192L198.539 16.3009C198.732 15.1863 198.611 14.6555 198.178 14.7113C197.745 14.767 197.314 14.9262 196.889 15.189C196.464 15.4517 196.098 16.1257 195.793 17.2085L194.059 24.0685C193.93 24.594 193.465 24.8567 192.662 24.8567C192.132 24.8408 191.915 24.5462 192.012 23.9717L193.794 16.204C193.89 15.8378 193.914 15.5512 193.866 15.3442C193.818 15.1372 193.517 15.2964 192.964 15.8219C192.41 16.3473 191.298 17.3996 189.628 18.9772C188.729 19.1046 188.279 18.6667 188.279 17.6623C190.831 14.6356 192.782 12.8271 194.131 12.2366Z" fill="#EC651B"/>
<path d="M210.627 0C211.477 0.0318454 211.864 0.326416 211.783 0.883711L210.892 5.37657L214.937 5.40046C215.82 5.36861 216.222 5.71891 216.142 6.45268C216.142 7.29791 215.725 7.71987 214.889 7.71987H210.266L207.954 18.1161C207.361 20.7301 207.689 22.0994 208.941 22.2268C209.519 22.2746 210.45 21.7849 211.734 20.7566C213.019 19.7283 214.631 18.2594 216.574 16.3473C217.504 16.0448 217.971 16.3951 217.971 17.3996C217.971 17.5747 217.939 17.7578 217.875 17.9489C215.691 20.0679 213.516 21.9322 211.349 23.5417C210.353 24.2437 209.27 24.6179 208.097 24.6656C206.251 24.6179 205.264 23.4462 205.134 21.152C205.134 20.0374 205.423 18.3071 206.002 15.9652L209.374 0.835943C209.519 0.278648 209.936 0 210.627 0Z" fill="#EC651B"/>
<path d="M217.178 22.8969C217.178 22.3555 217.347 21.9136 217.684 21.57C218.021 21.2276 218.438 21.0565 218.936 21.0565C219.435 21.0565 219.851 21.2276 220.189 21.57C220.526 21.9123 220.695 22.3555 220.695 22.8969C220.695 23.4382 220.526 23.8735 220.189 24.1999C219.852 24.5263 219.434 24.6895 218.936 24.6895C218.439 24.6895 218.022 24.5263 217.684 24.1999C217.347 23.8735 217.178 23.4396 217.178 22.8969Z" fill="black"/>
<path d="M229.219 11.4007C229.717 11.2414 230.262 11.1618 230.857 11.1618C231.338 11.1618 231.86 11.2176 232.423 11.329C233.369 11.7112 234.033 12.222 234.41 12.8589C234.787 13.4958 234.979 14.158 234.987 14.8426C234.995 15.5273 234.851 16.0461 234.554 16.3964C234.257 16.7467 233.784 16.9497 233.133 17.0055C232.483 17.0612 232.101 16.8582 231.988 16.3964C231.876 15.9347 231.924 15.5525 232.133 15.2487C232.726 14.7551 232.875 14.3132 232.578 13.9218C232.281 13.5317 231.792 13.3326 231.109 13.3247C230.425 13.3167 229.687 13.5157 228.893 13.9218C228.099 14.3278 227.488 14.8028 227.063 15.3442C226.638 15.8856 226.269 16.4681 225.954 17.0891C225.641 17.71 225.421 18.3164 225.293 18.9056C225.164 19.4947 225.18 20.0852 225.341 20.6743C225.501 21.2635 225.95 21.7982 226.69 22.2759C227.75 22.6103 228.709 22.7138 229.567 22.5864C230.425 22.459 231.249 22.1405 232.035 21.631C233.978 20.2444 235.84 18.6521 237.622 16.8502C238.601 16.5795 239.092 16.8821 239.092 17.7578C239.092 17.9489 239.068 18.1559 239.02 18.3788C237.125 20.2272 235.166 21.8765 233.143 23.3268C232.035 23.9637 231.209 24.3352 230.663 24.4387C230.118 24.5422 229.314 24.6417 228.255 24.7373C226.794 24.7213 225.671 24.4626 224.883 23.961C224.097 23.4595 223.518 22.7536 223.149 21.846C222.877 21.1931 222.74 20.531 222.74 19.8623C222.74 19.496 222.78 19.1298 222.861 18.7623C223.197 17.3757 223.57 16.3765 223.981 15.7622C224.39 15.1491 224.823 14.5706 225.282 14.0292C225.739 13.4879 226.285 12.9943 226.92 12.5471C227.553 12.1013 228.321 11.7191 229.219 11.3993V11.4007Z" fill="black"/>
<path d="M242.525 12.3919C243.368 12.0814 244.239 11.9102 245.138 11.8783C246.052 11.8783 246.848 12.1331 247.522 12.6426C248.067 13.1362 248.412 13.6232 248.558 14.1009C248.702 14.5786 248.782 15.1531 248.798 15.8219C249.2 16.6339 249.625 17.1607 250.075 17.3996C250.525 17.6384 251.112 17.5508 251.833 17.1368C252.716 16.9776 253.158 17.2085 253.158 17.8295C253.158 18.0842 253.078 18.4106 252.918 18.81C251.681 19.8463 250.55 20.2444 249.522 20.0056C248.831 19.7827 248.285 19.4722 247.884 19.0741C247.531 19.9817 247.09 20.803 246.559 21.5355C246.03 22.2679 245.318 22.9579 244.428 23.6028C243.537 24.2477 242.601 24.5873 241.623 24.6192C240.466 24.5714 239.568 24.3246 238.926 23.8788C238.204 23.4011 237.659 22.5797 237.288 21.4174C237.176 21.0034 237.12 20.5735 237.12 20.1263C237.12 19.3143 237.304 18.4451 237.673 17.5216C238.026 16.63 238.415 15.8763 238.842 15.2633C239.267 14.6502 239.776 14.0969 240.371 13.602C240.965 13.1084 241.684 12.7063 242.527 12.3945L242.525 12.3919ZM241.719 15.0801C240.883 15.7011 240.202 16.7693 239.672 18.2833C239.109 20.259 239.391 21.566 240.514 22.2029C241.461 22.7124 242.593 22.3303 243.91 21.0551C245.019 19.9074 245.885 18.538 246.511 16.9444C246.158 16.3553 245.893 15.8325 245.717 15.3787C245.54 14.9249 245.38 14.4273 245.235 13.8846C243.918 13.8687 242.747 14.2668 241.719 15.0801Z" fill="black"/>
<path d="M262.935 12.0455C263.336 12.0455 263.641 12.1411 263.849 12.3321C264.154 12.6347 264.314 13.0341 264.331 13.5277C265.567 12.571 266.875 12.0694 268.256 12.0217C268.673 12.0217 268.97 12.1729 269.148 12.4755C269.549 13.2397 269.613 14.3636 269.34 15.8458L268.304 21.0565C268.16 21.8539 268.168 22.2838 268.328 22.3475C268.585 22.4272 269.082 22.1565 269.822 21.5355C271.636 20.117 273.498 18.4372 275.409 16.492C276.469 16.1576 276.999 16.4681 276.999 17.4234C276.999 17.6304 276.975 17.8534 276.926 18.0922C274.599 20.1794 272.712 21.7889 271.267 22.9208C269.95 24.0844 268.803 24.6258 267.823 24.5462C267.181 24.4666 266.682 24.1959 266.329 23.7341C265.976 23.2724 265.904 22.4829 266.113 21.3683L267.124 16.3009C267.38 15.043 267.292 14.4326 266.859 14.4724C266.426 14.5122 265.915 14.7431 265.329 15.1651C264.744 15.587 264.361 16.0607 264.185 16.5875L262.547 24.0446C262.419 24.5542 261.929 24.8249 261.078 24.8567C260.532 24.8408 260.307 24.578 260.404 24.0685L261.993 16.277C262.266 15.0815 262.142 14.5162 261.62 14.5799C261.099 14.6436 260.552 14.8625 259.983 15.2367C259.413 15.6109 259.071 16.0461 258.958 16.5397L257.297 24.1402C257.2 24.6179 256.759 24.8567 255.972 24.8567C255.394 24.8408 255.144 24.578 255.225 24.0685L256.863 16.1815C256.928 15.8312 256.94 15.5485 256.899 15.3336C256.859 15.1186 256.558 15.2779 255.997 15.8113C255.434 16.3447 254.359 17.369 252.769 18.883C251.855 18.9786 251.396 18.5566 251.396 17.6158C254.029 14.4286 256.148 12.5816 257.754 12.0708C257.962 12.0708 258.179 12.0946 258.404 12.1424C258.933 12.2698 259.27 12.6679 259.414 13.3379C260.828 12.4781 261.999 12.0469 262.931 12.0469L262.935 12.0455Z" fill="black"/>
</g>
<defs>
<clipPath id="clip0_2001_8821">
<rect width="277" height="25" fill="white"/>
</clipPath>
</defs>
</svg>
