<svg width="18" height="26" viewBox="0 0 18 26" fill="none" xmlns="http://www.w3.org/2000/svg">
<path d="M3.56897 24.2046C11.7453 27.23 13.0454 22.8112 14.5094 18.6026C14.3973 20.4992 14.3173 22.4268 14.4408 24.5729C14.4464 24.6608 15.4362 25.7274 15.4547 25.662C16.6592 21.1234 17.1922 15.8705 17.6309 10.5128C17.7606 9.01747 17.8359 7.4636 18.0041 6.00622C18.0177 5.88434 16.8399 4.58165 16.1877 3.9459C16.2808 3.76607 16.3707 3.58281 16.4704 3.40656C16.5544 3.25449 13.692 0.179843 13.5583 0.278577C7.35967 5.17568 1.58047 10.5302 0.565647 20.9785C0.543714 21.2109 3.22058 24.076 3.56897 24.2046ZM8.09756 21.2027C9.96553 17.3086 11.8208 13.3974 13.6295 9.43967C11.8112 13.3871 11.4441 18.8934 8.09756 21.2027ZM3.92217 21.3931C4.05952 21.5542 4.2147 21.7278 4.37788 21.9099C4.20468 21.8945 4.02678 21.8706 3.84397 21.8449C3.8684 21.6936 3.89444 21.5441 3.92217 21.3931Z" fill="#FEE7D9"/>
</svg>
