<svg xmlns="http://www.w3.org/2000/svg" viewBox="0 0 119 23" fill="none">
  <g clip-path="url(#clip0_2051_8549)">
    <path d="M118.35 6.87638C102.112 -0.201899 85.5976 -1.62897 69.2226 1.74331C67.7129 1.67744 66.154 1.96286 64.6319 1.93212C63.8997 1.98042 63.6084 3.95637 63.7643 5.4976C42.7515 5.92792 21.7284 7.68871 0.779235 12.6505C-0.244328 12.8964 -0.277148 17.3708 0.779235 17.2874C2.51457 17.1513 4.25197 17.0152 5.98731 16.879C-4.66883 17.9373 11.7595 19.3117 1.11564 21.0373C0.678725 21.1076 0.672571 23.0484 1.11564 22.9957C48.5872 17.2567 69.04 15.048 116.547 17.9373C117.398 17.9856 117.383 14.3323 116.547 14.1742C108.27 12.6374 99.9808 11.5396 91.6897 10.7931C100.496 11.1137 109.302 11.544 118.105 11.9655C119.096 12.0138 119.377 7.31987 118.345 6.87198L118.35 6.87638ZM79.1505 5.46687C85.253 4.82139 91.3656 4.97069 97.4639 5.91914C91.3595 5.70398 85.255 5.54151 79.1505 5.46687Z" fill="#FEE7D9"/>
  </g>
  <defs>
    <clipPath id="clip0_2051_8549">
      <rect width="119" height="23" fill="white"/>
    </clipPath>
  </defs>
</svg>