<svg viewBox="0 0 30 27" fill="none" xmlns="http://www.w3.org/2000/svg">
<g clip-path="url(#clip0_2001_2427)">
<path fill-rule="evenodd" clip-rule="evenodd" d="M1.17993 2.14482C0.983382 2.47972 0.848421 2.10124 0.724597 3.21455C0.426504 5.87865 0.75801 7.10527 1.58415 7.98626C2.05586 8.47805 5.27593 8.60778 6.63012 8.16728C7.14114 7.98626 8.79867 7.70265 10.3108 7.46732C13.238 7.07811 13.3841 7.02682 15.6489 6.43245C18.6495 5.62991 21.6665 5.21656 25.6505 5.03554C30.0216 4.85451 30.0334 4.85451 29.9941 3.63862C29.9771 3.09555 29.9378 3.06839 29.3029 2.88737C25.6282 1.95508 19.6047 1.98224 15.4524 2.93866C14.8175 3.09253 12.609 3.32786 10.5361 3.48173C8.46848 3.61147 6.4172 3.84379 5.9848 3.97352C4.8776 4.30842 3.0349 4.28428 2.68636 3.94637C2.51798 3.7925 2.49994 3.49997 2.4053 3.32484C1.99994 2.99994 1.99994 2.99994 1.99994 2.99994C1.49994 2.49994 1.99994 2.50013 1.99994 2.50013C1.89839 1.93593 1.34306 1.86122 1.17993 2.14482Z" fill="black"/>
<path fill-rule="evenodd" clip-rule="evenodd" d="M15.6483 12.1255C7.83822 12.5901 2.96063 13.1875 1.47212 13.8603C0.927038 14.0926 0.370815 14.3008 0.241751 14.2736C0.10679 14.2736 0 14.3249 0 14.4275C0 14.5059 0.123823 14.9193 0.28106 15.3085C0.797973 16.6541 0.123823 16.6028 9.80498 15.749C11.2882 15.6193 12.9458 15.3869 13.4856 15.2572C14.6262 14.9464 21.2623 14.7926 25.4428 14.9736C27.9658 15.0762 28.3307 15.052 28.3759 14.7141C28.522 13.6521 28.5502 13.6521 24.6952 12.7983C21.0487 11.9716 19.8013 11.866 15.6489 12.1255H15.6483Z" fill="black"/>
<path fill-rule="evenodd" clip-rule="evenodd" d="M5.38984 21.0425C5.01902 21.0938 4.00747 21.3019 3.14202 21.5071C2.27656 21.7153 1.49038 21.8179 1.39473 21.7394C1.2768 21.661 1.19229 21.7666 1.13071 22.0502C0.995745 22.6446 1.01278 23.1363 1.18115 23.6281C1.30498 24.0173 1.45632 24.0415 2.4849 23.9117C3.12564 23.8092 4.15357 23.6281 4.77203 23.4471C5.56411 23.2389 6.90127 23.2148 9.32336 23.3687C14.049 23.6794 17.7407 23.6523 19.9709 23.2661C24.1566 22.542 24.9212 22.4394 27.0223 22.2825C29.3991 22.1015 29.7195 21.9989 29.7195 21.4015C29.7195 21.0666 29.2589 21.0123 26.0114 21.0395C23.9719 21.0666 21.5052 21.2205 20.533 21.3744C18.4201 21.7093 13.1665 21.7364 11.3183 21.4015C9.76166 21.1179 6.35095 20.9097 5.39049 21.0395L5.38984 21.0425Z" fill="black"/>
</g>
<defs>
<clipPath id="clip0_2001_2427">
<rect width="30" height="27" fill="white"/>
</clipPath>
</defs>
</svg>
