<svg xmlns="http://www.w3.org/2000/svg" viewBox="0 0 32 32" fill="none">
<g clip-path="url(#clip0_2001_8814)">
<path d="M9.95964 29.3133C9.95964 30.7323 11.1139 31.8865 12.5329 31.8865C13.9519 31.8865 15.1062 30.7323 15.1062 29.3133C15.1062 27.8942 13.9519 26.74 12.5329 26.74C11.1139 26.74 9.95964 27.8942 9.95964 29.3133ZM10.7806 29.3133C10.7806 28.3469 11.5665 27.5609 12.5329 27.5609C13.4993 27.5609 14.2852 28.3469 14.2852 29.3133C14.2852 30.2796 13.4993 31.0656 12.5329 31.0656C11.5665 31.0656 10.7806 30.2796 10.7806 29.3133Z" fill="black" stroke="black" stroke-width="0.1"/>
<path d="M21.855 29.3133C21.855 30.7323 23.0093 31.8865 24.4283 31.8865C25.8473 31.8865 27.0015 30.7323 27.0015 29.3133C27.0015 27.8942 25.8473 26.74 24.4283 26.74C23.0093 26.74 21.855 27.8942 21.855 29.3133ZM22.676 29.3133C22.676 28.3469 23.4619 27.5609 24.4283 27.5609C25.3947 27.5609 26.1806 28.3469 26.1806 29.3133C26.1806 30.2796 25.3947 31.0656 24.4283 31.0656C23.4619 31.0656 22.676 30.2796 22.676 29.3133Z" fill="black" stroke="black" stroke-width="0.1"/>
<path d="M4.68926 2.18361L4.73876 2.17654L4.68926 2.18361L7.6685 23.0356L7.718 23.0285L7.6685 23.0356C7.77295 23.7658 8.40772 24.3167 9.14544 24.3167H27.6724C27.8992 24.3167 28.0829 24.1331 28.0829 23.9063C28.0829 23.6795 27.8992 23.4958 27.6724 23.4958H9.14544C8.81347 23.4958 8.52817 23.2483 8.48122 22.9196L5.50197 2.06764L5.50197 2.06763C5.39752 1.33741 4.76276 0.786514 4.02504 0.786514H0.637565C0.410794 0.786514 0.2271 0.970207 0.2271 1.19698C0.2271 1.42375 0.410794 1.60744 0.637565 1.60744H4.02504C4.357 1.60744 4.64231 1.85498 4.68926 2.18361Z" fill="black" stroke="black" stroke-width="0.1"/>
<path d="M27.7311 19.9912H7.5909C7.36412 19.9912 7.18043 19.8075 7.18043 19.5807C7.18043 19.3539 7.36412 19.1702 7.5909 19.1702H27.8517C28.1763 19.1702 28.4539 18.9388 28.5118 18.6193L28.5118 18.6192L30.425 8.09582H5.8922C5.66543 8.09582 5.48174 7.91212 5.48174 7.68535C5.48174 7.45858 5.66543 7.27489 5.8922 7.27489H30.9166C31.0388 7.27489 31.1537 7.32934 31.2316 7.4226C31.3095 7.51586 31.3425 7.63899 31.3199 7.75921L31.3199 7.75918L31.2707 7.75024L31.3199 7.75948L27.7311 19.9912ZM27.7311 19.9912L27.7302 19.9921H27.8508C28.5725 19.9921 29.1898 19.4764 29.3185 18.7669M27.7311 19.9912L29.3185 18.7669M29.3185 18.7669L29.2693 18.7579L29.3185 18.7669M29.3185 18.7669C29.3185 18.7669 29.3185 18.7669 29.3185 18.7669M29.3185 18.7669L29.3185 18.7669M30.4849 8.04582H30.4341L30.4758 8.09582L30.4849 8.04582Z" fill="black" stroke="black" stroke-width="0.1"/>
</g>
<defs>
<clipPath id="clip0_2001_8814">
<rect width="31" height="31" fill="white" transform="translate(0.2771 0.836514)"/>
</clipPath>
</defs>
</svg>