<svg xmlns="http://www.w3.org/2000/svg" width="8" height="15" viewBox="0 0 8 15" fill="none">
  <g clip-path="url(#clip0_2001_10149)">
    <path fill-rule="evenodd" clip-rule="evenodd" d="M0.187125 1.80307C1.0191 4.12654 3.38505 7.42174 5.4221 9.08644L5.94598 9.51773L5.3467 9.79387C3.68404 10.5723 1.51959 12.07 1.1153 12.7288C0.80851 13.2074 0.80071 13.8912 1.0854 14.2501C1.3779 14.621 1.68469 14.5736 1.93948 14.1423C2.32947 13.4835 4.14163 12.3093 6.13318 11.4467C6.67266 11.2192 7.24205 10.9194 7.40585 10.7879C7.94533 10.3448 8.14683 9.61372 7.88553 9.01543C7.81794 8.86027 7.26415 8.34482 6.63497 7.85304C4.85271 6.475 3.72174 5.18111 1.56379 2.05554C0.500417 0.522336 0.283323 0.306688 0.0805278 0.630159C-0.0546688 0.845807 -0.0247695 1.21662 0.185825 1.80439L0.187125 1.80307Z" fill="black"/>
  </g>
  <defs>
    <clipPath id="clip0_2001_10149">
      <rect width="14" height="8" fill="white" transform="translate(0 14.5) rotate(-90)"/>
    </clipPath>
  </defs>
</svg>