<svg xmlns="http://www.w3.org/2000/svg" viewBox="0 0 17 17" fill="none">
<g clip-path="url(#clip0_2001_8877)">
<path d="M11.9015 7.96671L16.2989 3.56933C16.7669 3.10136 16.7669 2.34291 16.2989 1.87493L15.1451 0.721123C14.6771 0.253146 13.9187 0.253146 13.4507 0.721123L11.2601 2.91174L9.05333 5.1185L4.65595 0.721123C4.18798 0.253146 3.42751 0.253146 2.95953 0.721123L1.00089 2.67977C0.532908 3.14775 0.532908 3.90821 1.00089 4.37619L5.39826 8.77357L1.57779 12.594C1.53946 12.6324 1.51122 12.6808 1.49912 12.7352L0.692262 15.9627C0.666039 16.0656 0.696297 16.1745 0.770931 16.2491C0.827411 16.3056 0.90608 16.3379 0.984749 16.3379C1.00895 16.3379 1.03316 16.3358 1.05737 16.3298L4.2848 15.5229C4.33724 15.5088 4.38566 15.4826 4.426 15.4443L8.24647 11.6218L12.6439 16.0192C12.8778 16.2531 13.1844 16.3701 13.4911 16.3701C13.7977 16.3701 14.1063 16.2531 14.3383 16.0192L16.2969 14.0605C16.7649 13.5925 16.7649 12.8321 16.2969 12.3641L11.9015 7.96671ZM11.4739 3.5532L13.4668 5.54614L11.4739 7.53908L9.48097 5.54614L11.4739 3.5532ZM4.05686 14.9561L3.30447 15.1437V14.0181C3.30447 13.8507 3.16932 13.7156 3.00189 13.7156H1.87633L2.06392 12.9632L5.8259 9.2012L7.81884 11.1941L4.05686 14.9561ZM15.8693 13.6309L13.9106 15.5895C13.6786 15.8215 13.3014 15.8215 13.0695 15.5895L12.303 14.823L12.4926 14.6334C12.6116 14.5144 12.6116 14.3227 12.4926 14.2057C12.3736 14.0867 12.1819 14.0867 12.0649 14.2057L11.8773 14.3974L11.0947 13.6147L11.6877 13.0217C11.8067 12.9027 11.8067 12.711 11.6877 12.594C11.5687 12.475 11.3771 12.475 11.2601 12.594L10.667 13.1871L9.8844 12.4044L10.074 12.2148C10.193 12.0958 10.193 11.9042 10.074 11.7872C9.955 11.6682 9.76337 11.6682 9.64637 11.7872L9.45676 11.9768L8.67411 11.1941L9.26715 10.6011C9.38616 10.4821 9.38616 10.2905 9.26715 10.1735C9.14814 10.0545 8.95651 10.0545 8.83951 10.1735L8.24647 10.7665L7.46382 9.98386L7.65343 9.79425C7.77244 9.67523 7.77244 9.4836 7.65343 9.36661C7.53442 9.2476 7.34279 9.2476 7.2258 9.36661L7.03619 9.55622L6.25353 8.77357L6.84657 8.18053C6.96559 8.06152 6.96559 7.86989 6.84657 7.75289C6.72756 7.63388 6.53593 7.63388 6.41894 7.75289L5.8259 8.34593L5.04325 7.56328L5.23286 7.37367C5.35187 7.25466 5.35187 7.06303 5.23286 6.94603C5.11385 6.82702 4.92222 6.82702 4.80522 6.94603L4.61561 7.13565L3.83296 6.35299L4.426 5.75995C4.54501 5.64094 4.54501 5.44931 4.426 5.33232C4.30699 5.21331 4.11536 5.21331 3.99836 5.33232L3.40532 5.92536L2.62267 5.14271L2.81228 4.95309C2.93129 4.83408 2.93129 4.64245 2.81228 4.52546C2.69327 4.40645 2.50164 4.40645 2.38465 4.52546L2.19504 4.71507L1.42852 3.94856C1.19655 3.71658 1.19655 3.33938 1.42852 3.10741L3.38717 1.14876C3.50215 1.03378 3.65545 0.975284 3.80674 0.975284C3.95802 0.975284 4.11132 1.03378 4.2263 1.14876L15.8693 12.7917C16.1033 13.0237 16.1033 13.4009 15.8693 13.6309Z" fill="currentColor"/>
</g>
<defs>
<clipPath id="clip0_2001_8877">
<rect width="16" height="16" fill="white" transform="translate(0.649902 0.37014)"/>
</clipPath>
</defs>
</svg>