<svg xmlns="http://www.w3.org/2000/svg" viewBox="0 0 11 13" fill="none">
  <path fill-rule="evenodd" clip-rule="evenodd" d="M2.41173 0.139361C1.85793 0.402649 1.93253 0.86793 2.6212 1.51291C3.01431 1.89461 3.48203 2.56467 4.04875 3.58021C4.50355 4.4049 4.87371 5.12093 4.87371 5.15715C4.87371 5.20451 4.4189 5.81467 3.8651 6.51956C2.60972 8.13272 0.480597 11.2267 0.172133 11.9079C-0.0488144 12.3857 -0.0488144 12.4456 0.123352 12.7201C0.405992 13.1268 0.862233 13.0906 1.31704 12.6128C1.52651 12.4094 2.60972 11.0721 3.7288 9.66229C4.84789 8.25252 5.79624 7.08096 5.84502 7.05728C5.88232 7.04474 6.35004 7.83321 6.87802 8.80138C8.0717 10.9996 8.42895 11.4538 8.99423 11.4538C9.55951 11.4538 9.85506 11.0358 9.74459 10.3672C9.67142 9.9019 8.73598 8.00177 7.69007 6.20891L7.18505 5.32432L8.61259 3.96191C9.64559 2.99373 10.1262 2.61204 10.3357 2.61204C10.9627 2.61204 11.2338 1.73998 10.7546 1.29838C10.066 0.677081 8.94545 1.17858 7.01431 2.99513L6.26395 3.70001L5.67285 2.70816C4.81202 1.25102 4.19652 0.509914 3.59394 0.222945C2.99136 -0.0514873 2.83067 -0.0640248 2.41317 0.139361H2.41173Z" fill="black"/>
</svg>