<svg xmlns="http://www.w3.org/2000/svg" width="25" height="33" viewBox="0 0 25 33" fill="none">
  <g clip-path="url(#clip0_2001_8792)">
    <path d="M5.7564 33.049H21.3286C23.0916 33.049 24.5265 31.6169 24.5265 29.8562V3.14099C24.5265 1.38103 23.0916 -0.0510109 21.3286 -0.0510109H5.7564C5.5714 -0.0510109 5.42083 0.0991495 5.42083 0.284034V32.7139C5.42083 32.8988 5.5714 33.049 5.7564 33.049ZM21.3286 32.3789H6.09198V0.619078H21.3286C22.7216 0.619078 23.8553 1.7508 23.8553 3.14099V29.8562C23.8553 31.2472 22.7216 32.3789 21.3286 32.3789Z" fill="black" stroke="black" stroke-width="0.1"/>
    <path d="M3.62514 33.049H5.75637C5.94138 33.049 6.09195 32.8988 6.09195 32.7139V0.284034C6.09195 0.0991495 5.94138 -0.0510109 5.75637 -0.0510109H3.62514C1.86131 -0.0510109 0.42644 1.38103 0.42644 3.14099V29.8562C0.42644 31.6169 1.8613 33.049 3.62514 33.049ZM1.0976 3.14099C1.0976 1.75081 2.2313 0.619078 3.62514 0.619078H5.4208V32.3789H3.62514C2.23131 32.3789 1.0976 31.2472 1.0976 29.8562V3.14099ZM2.14073 26.0056C2.14073 26.693 2.70093 27.2512 3.38852 27.2512C4.07612 27.2512 4.63632 26.693 4.63632 26.0056C4.63632 25.3182 4.07612 24.7601 3.38852 24.7601C2.70093 24.7601 2.14073 25.3182 2.14073 26.0056ZM2.81188 26.0056C2.81188 25.6888 3.07091 25.4302 3.38852 25.4302C3.70614 25.4302 3.96516 25.6888 3.96516 26.0056C3.96516 26.3224 3.70614 26.5811 3.38852 26.5811C3.07091 26.5811 2.81188 26.3224 2.81188 26.0056ZM2.14073 21.2462C2.14073 21.9328 2.7009 22.4918 3.38852 22.4918C4.07612 22.4918 4.63632 21.9336 4.63632 21.2462C4.63632 20.5588 4.07612 20.0006 3.38852 20.0006C2.7009 20.0006 2.14073 20.5596 2.14073 21.2462ZM2.81188 21.2462C2.81188 20.9294 3.07091 20.6707 3.38852 20.6707C3.70614 20.6707 3.96516 20.9294 3.96516 21.2462C3.96516 21.563 3.70614 21.8217 3.38852 21.8217C3.07091 21.8217 2.81188 21.563 2.81188 21.2462ZM2.14073 16.4868C2.14073 17.1742 2.70093 17.7323 3.38852 17.7323C4.07612 17.7323 4.63632 17.1742 4.63632 16.4868C4.63632 15.7994 4.07612 15.2412 3.38852 15.2412C2.70093 15.2412 2.14073 15.7994 2.14073 16.4868ZM2.81188 16.4868C2.81188 16.17 3.07091 15.9113 3.38852 15.9113C3.70614 15.9113 3.96516 16.17 3.96516 16.4868C3.96516 16.8036 3.70614 17.0622 3.38852 17.0622C3.07091 17.0622 2.81188 16.8036 2.81188 16.4868ZM2.14073 11.7265C2.14073 12.4139 2.70088 12.9729 3.38852 12.9729C4.07616 12.9729 4.63632 12.4139 4.63632 11.7265C4.63632 11.0391 4.07612 10.481 3.38852 10.481C2.70093 10.481 2.14073 11.0391 2.14073 11.7265ZM2.81188 11.7265C2.81188 11.4097 3.07091 11.1511 3.38852 11.1511C3.70618 11.1511 3.96516 11.409 3.96516 11.7265C3.96516 12.0442 3.7061 12.3028 3.38852 12.3028C3.07099 12.3028 2.81188 12.0434 2.81188 11.7265ZM2.14073 6.9671C2.14073 7.6545 2.70093 8.21266 3.38852 8.21266C4.07614 8.21266 4.63632 7.65367 4.63632 6.9671C4.63632 6.28054 4.07614 5.72155 3.38852 5.72155C2.70093 5.72155 2.14073 6.2797 2.14073 6.9671ZM2.81188 6.9671C2.81188 6.65031 3.07091 6.39163 3.38852 6.39163C3.70614 6.39163 3.96516 6.65031 3.96516 6.9671C3.96516 7.2839 3.70614 7.54257 3.38852 7.54257C3.07091 7.54257 2.81188 7.2839 2.81188 6.9671Z" fill="black" stroke="black" stroke-width="0.1"/>
    <path d="M9.00384 5.93394H20.8594H20.8602C21.0449 5.93349 21.195 5.7835 21.195 5.59889C21.195 5.41401 21.0444 5.26385 20.8594 5.26385H9.00384C8.81884 5.26385 8.66826 5.41401 8.66826 5.59889C8.66826 5.78378 8.81884 5.93394 9.00384 5.93394Z" fill="black" stroke="black" stroke-width="0.1"/>
    <path d="M9.00384 10.4865H20.8594H20.8602C21.0449 10.4861 21.195 10.3361 21.195 10.1515C21.195 9.96657 21.0444 9.81641 20.8594 9.81641H9.00384C8.81884 9.81641 8.66826 9.96657 8.66826 10.1515C8.66826 10.3363 8.81884 10.4865 9.00384 10.4865Z" fill="black" stroke="black" stroke-width="0.1"/>
    <path d="M9.00384 15.0399H20.8594H20.8602C21.0449 15.0394 21.195 14.8894 21.195 14.7048C21.195 14.52 21.0444 14.3698 20.8594 14.3698H9.00384C8.81884 14.3698 8.66826 14.52 8.66826 14.7048C8.66826 14.8897 8.81884 15.0399 9.00384 15.0399Z" fill="black" stroke="black" stroke-width="0.1"/>
    <path d="M9.00384 19.5933H20.8594H20.8602C21.0449 19.5928 21.195 19.4428 21.195 19.2582C21.195 19.0733 21.0444 18.9232 20.8594 18.9232H9.00384C8.81884 18.9232 8.66826 19.0733 8.66826 19.2582C8.66826 19.4431 8.81884 19.5933 9.00384 19.5933Z" fill="black" stroke="black" stroke-width="0.1"/>
    <path d="M9.00384 24.1458H20.8594H20.8602C21.0449 24.1454 21.195 23.9954 21.195 23.8108C21.195 23.6259 21.0444 23.4757 20.8594 23.4757H9.00384C8.81884 23.4757 8.66826 23.6259 8.66826 23.8108C8.66826 23.9957 8.81884 24.1458 9.00384 24.1458Z" fill="black" stroke="black" stroke-width="0.1"/>
    <path d="M9.00384 28.0778H20.8594H20.8602C21.0449 28.0774 21.195 27.9274 21.195 27.7428C21.195 27.5579 21.0444 27.4077 20.8594 27.4077H9.00384C8.81884 27.4077 8.66826 27.5579 8.66826 27.7428C8.66826 27.9277 8.81884 28.0778 9.00384 28.0778Z" fill="black" stroke="black" stroke-width="0.1"/>
  </g>
  <defs>
    <clipPath id="clip0_2001_8792">
      <rect width="24" height="33" fill="white" transform="translate(0.47644 -0.00101089)"/>
    </clipPath>
  </defs>
</svg>