<svg xmlns="http://www.w3.org/2000/svg" width="22" height="21" viewBox="0 0 22 21" fill="none">
<g clip-path="url(#clip0_2001_8843)">
<path d="M11.6597 4.14619C10.8111 2.22037 8.73315 1.00256 6.58837 1.20081C4.33315 1.40755 2.32206 3.16062 1.71466 5.27053C1.40369 6.35523 1.58969 7.47391 2.07793 8.48213C2.54583 9.44788 3.2782 10.3938 4.2605 10.9092C4.28375 10.9546 4.31862 10.9942 4.37384 11.0225C6.28903 12.0364 8.89009 11.2972 10.3664 9.86703C11.8602 8.42266 12.5025 6.06919 11.6597 4.14619ZM10.4246 8.93527C9.15165 10.5807 6.56512 11.5011 4.59471 10.5439C4.55112 10.5212 4.50753 10.5156 4.46974 10.5156C3.0428 9.57532 1.90647 7.80526 2.08375 6.08618C2.27846 4.18867 3.92628 2.41578 5.78045 1.88901C7.70145 1.34525 9.7852 2.12407 10.8402 3.77519C11.8602 5.37249 11.558 7.46824 10.4246 8.93527Z" fill="black"/>
<path d="M9.29988 7.54754C8.97439 7.83075 8.70992 8.13378 8.32921 8.35469C7.9485 8.57559 7.51256 8.72286 7.07082 8.771C6.62617 8.81915 6.18152 8.77384 5.75431 8.64922C5.30675 8.51895 4.94057 8.26972 4.54242 8.04882C4.35352 7.94403 4.13846 8.19892 4.27505 8.36035C4.92313 9.12218 6.14955 9.41389 7.12313 9.31193C7.62591 9.25812 8.10834 9.10519 8.55008 8.86729C8.97729 8.63789 9.451 8.29804 9.69222 7.87606C9.81137 7.66649 9.4946 7.37478 9.29988 7.54471V7.54754Z" fill="black"/>
<path d="M21.4015 17.2305C21.0441 16.7604 20.6023 16.3497 20.1867 15.9334C19.684 15.4293 19.1783 14.9252 18.6755 14.4211C18.1844 13.9311 17.6961 13.4412 17.205 12.9512C17.1759 12.8918 17.1294 12.8408 17.0684 12.8153C16.8301 12.5774 16.5918 12.3395 16.3535 12.1044C16.0832 11.8382 15.7693 11.6145 15.5048 11.3483C15.4583 11.3029 15.4118 11.2888 15.3653 11.2916C15.313 11.1415 15.1387 11.0254 14.9933 11.15C14.7841 11.3284 14.5952 11.5267 14.3976 11.7193C14.2581 11.5692 14.1011 11.4276 13.9529 11.286C13.7844 11.1217 13.6129 10.9603 13.4414 10.7988C13.2758 10.6402 13.1101 10.4845 12.9416 10.3259C12.7643 10.1616 12.5754 10.0087 12.3923 9.85291C12.3719 9.83592 12.3487 9.82176 12.3225 9.81326C12.5579 9.47908 12.7672 9.1279 12.9416 8.76256C13.5664 7.45696 13.7902 5.96161 13.4007 4.55689C13.0491 3.29094 12.1889 2.18359 11.1194 1.40477C8.91646 -0.192535 5.83007 -0.461584 3.38595 0.77321C0.802328 2.07597 -0.659495 5.19695 0.293742 7.92426C0.305367 7.96107 0.32571 7.98939 0.346054 8.01205C1.10748 10.6459 3.41792 12.7105 6.27181 12.9172C7.99229 13.0419 9.63139 12.399 10.9188 11.3313C10.9188 11.3483 10.9188 11.3653 10.9188 11.3624C10.9247 11.4134 10.945 11.4559 10.9741 11.4955C11.0118 11.5493 11.0642 11.5947 11.1107 11.6428C11.1862 11.7193 11.2647 11.7929 11.3461 11.8665C11.5146 12.0195 11.6861 12.1724 11.8546 12.3253C12.1598 12.6 12.4649 12.8776 12.7759 13.1495C12.5347 13.3477 12.2993 13.5488 12.0784 13.7669C11.8982 13.9425 12.1772 14.2087 12.3749 14.0897C12.3749 14.0897 12.3778 14.0897 12.3807 14.0869C12.3749 14.1379 12.3894 14.1917 12.4214 14.237C12.6044 14.4834 12.8369 14.7015 13.0549 14.9195C13.2642 15.1291 13.4763 15.3387 13.6885 15.5483C13.7059 15.5653 13.7262 15.5709 13.7466 15.5822C13.7495 15.5879 13.7495 15.5936 13.7553 15.5992C14.4266 16.5565 15.2113 17.4316 16.0221 18.2756C16.4261 18.6947 16.8417 19.1054 17.2689 19.5019C17.7019 19.9069 18.1379 20.3373 18.6203 20.6885C18.6348 20.6998 18.6494 20.7027 18.6668 20.7112C18.6871 20.731 18.7075 20.7508 18.7395 20.765C19.745 21.2464 21.0005 20.9831 21.6311 20.0541C22.2501 19.1394 22.038 18.0745 21.4015 17.2334V17.2305ZM0.799422 7.67503C0.776172 7.5929 0.729673 7.54192 0.674455 7.51643C0.130994 5.36404 1.04645 2.99357 2.88317 1.68515C4.91752 0.235112 7.81501 0.150149 10.0034 1.31414C11.0874 1.88906 12.0348 2.78966 12.5638 3.88568C13.1276 5.04684 13.1595 6.36943 12.7933 7.5929C12.0784 9.98036 9.90167 12.0903 7.30061 12.3565C4.21131 12.6737 1.55504 10.5043 0.799422 7.67503ZM12.2034 11.9147C12.0377 11.7674 11.8721 11.6201 11.7035 11.4757C11.6221 11.4049 11.5408 11.3341 11.4565 11.269C11.4042 11.2293 11.3519 11.1868 11.2937 11.1528C11.2501 11.1274 11.2095 11.1189 11.1688 11.116C11.4943 10.8215 11.7936 10.5015 12.0639 10.1588C12.2266 10.3372 12.3836 10.5185 12.555 10.6912C12.7207 10.8583 12.8922 11.0226 13.0607 11.1868C13.2235 11.3483 13.3891 11.5069 13.5548 11.6655C13.7001 11.8042 13.8396 11.9628 13.9965 12.0931C13.8512 12.229 13.7059 12.365 13.5577 12.4953C13.4414 12.5972 13.3252 12.6992 13.206 12.7983C12.8776 12.5009 12.5405 12.2092 12.2063 11.9147H12.2034ZM13.4095 14.5202C13.2002 14.3191 12.9939 14.1067 12.7556 13.9368C12.7294 13.917 12.6974 13.9056 12.6684 13.8943C13.1072 13.5913 13.5141 13.2231 13.9122 12.8748C14.1535 12.6624 14.3918 12.4443 14.6243 12.2234C14.8277 12.0308 15.0428 11.8382 15.2317 11.6286C15.2375 11.6343 15.2404 11.6428 15.2462 11.6485C15.4642 11.8665 15.6443 12.1299 15.8594 12.3537C16.0745 12.5774 16.2924 12.7955 16.5104 13.0135C16.5336 13.0362 16.5569 13.0588 16.5772 13.0815C16.554 13.1042 16.5278 13.1296 16.5046 13.1523C16.3854 13.2656 16.2634 13.376 16.1442 13.4865C15.8914 13.7159 15.6327 13.9368 15.3682 14.152C15.1067 14.3644 14.8393 14.5712 14.5661 14.7694C14.4324 14.8657 14.3017 14.962 14.1709 15.0611C14.136 15.0895 14.1011 15.1178 14.0634 15.1461C14.0575 15.1376 14.0517 15.1291 14.0459 15.1234C13.8367 14.9195 13.6245 14.7156 13.4153 14.5145L13.4095 14.5202ZM21.3841 19.2385C21.0935 20.258 19.9281 20.714 18.9719 20.2552C18.9284 20.2354 18.8877 20.2241 18.847 20.2241C18.4605 19.8672 18.0478 19.5359 17.6612 19.1818C17.2311 18.7853 16.8155 18.3775 16.4087 17.9612C15.6589 17.1909 14.9643 16.3752 14.2639 15.5624C14.3162 15.5341 14.3714 15.5058 14.4208 15.4775C14.5719 15.3897 14.7173 15.2934 14.8568 15.1942C15.1416 14.996 15.4177 14.7893 15.6879 14.5712C15.9553 14.3559 16.214 14.135 16.4668 13.9056C16.5947 13.7895 16.7225 13.6734 16.8446 13.5516C16.8766 13.5205 16.9085 13.4893 16.9434 13.4582C17.1992 13.7159 17.4549 13.9736 17.7107 14.2313C18.5505 15.0725 19.3933 15.9108 20.2303 16.7547C20.8871 17.4146 21.666 18.2388 21.3812 19.2385H21.3841Z" fill="black"/>
</g>
<defs>
<clipPath id="clip0_2001_8843">
<rect width="22" height="21" fill="white"/>
</clipPath>
</defs>
</svg>