<svg xmlns="http://www.w3.org/2000/svg" width="25" height="34" viewBox="0 0 25 34" fill="none">
<g clip-path="url(#clip0_2001_8806)">
<path d="M8.96529 18.8501L11.5293 20.9245C12.246 21.5025 13.2599 21.5025 13.9819 20.9245L16.5459 18.8501C18.1597 19.1581 19.7204 19.6928 21.1909 20.4491L21.2121 20.4599L21.2334 20.4707C23.5214 21.6267 23.8346 26.5046 23.6647 29.2001V29.2487V29.2974C23.6647 29.3082 23.6647 29.319 23.6647 29.3352C23.601 30.3993 19.7576 32.425 12.7662 32.425C5.77485 32.425 1.94738 30.4101 1.86775 29.3406V29.2974V29.2487V29.2001C1.68726 26.4992 2.00577 21.6267 4.29376 20.4707L4.315 20.4599L4.33623 20.4491C5.80139 19.6982 7.36742 19.1581 8.98122 18.8501M9.02369 17.759C8.9706 17.759 8.91752 17.759 8.86443 17.7752C7.11261 18.0993 5.41387 18.6827 3.8213 19.5038C0.39728 21.227 0.726411 28.271 0.790113 29.2703C0.790113 29.2812 0.790113 29.292 0.790113 29.3028C0.790113 31.6202 6.14645 33.5 12.7503 33.5C19.3541 33.5 24.7105 31.6202 24.7105 29.3028C24.7105 29.292 24.7105 29.2812 24.7105 29.2703C24.7742 28.271 25.1033 21.227 21.6952 19.5038C20.108 18.6827 18.4092 18.0993 16.6521 17.7752C16.599 17.7644 16.5459 17.759 16.4928 17.759C16.2858 17.759 16.0894 17.8292 15.9301 17.9588L13.313 20.0764C12.9839 20.3411 12.5167 20.3411 12.1823 20.0764L9.56516 17.9588C9.40591 17.8292 9.20418 17.759 9.00245 17.759H9.02369Z" fill="black"/>
<path d="M12.7503 1.58038C17.3156 1.58038 18.2765 5.4049 18.2765 8.61361C18.2765 12.4922 15.7974 15.6468 12.7503 15.6468C9.70316 15.6468 7.22407 12.4922 7.22407 8.61361C7.22407 6.49608 7.76023 1.58038 12.7503 1.58038ZM12.7503 0.500008C8.23269 0.500008 6.16235 4.13546 6.16235 8.61361C6.16235 13.0918 9.11391 16.7272 12.7503 16.7272C16.3866 16.7272 19.3382 13.0918 19.3382 8.61361C19.3382 4.13546 17.4855 0.500008 12.7503 0.500008Z" fill="black"/>
</g>
<defs>
<clipPath id="clip0_2001_8806">
<rect width="24" height="33" fill="white" transform="translate(0.75293 0.500008)"/>
</clipPath>
</defs>
</svg>